<svg width="488" height="343" viewBox="0 0 488 343" fill="none" xmlns="http://www.w3.org/2000/svg">
<path d="M36.3575 149.255V139.327C36.3575 135.52 33.9561 133.039 29.8399 133.039C27.7822 133.039 25.5526 133.701 24.009 135.852C22.809 134.031 21.0943 133.039 18.5217 133.039C16.8062 133.039 15.0922 133.535 13.7197 135.355V133.37H10.1183V149.255H13.7197V140.484C13.7197 137.672 15.2633 136.348 17.6648 136.348C20.0646 136.348 21.2661 137.837 21.2661 140.484V149.255H24.8675V140.484C24.8675 137.672 26.5815 136.348 28.8111 136.348C31.2125 136.348 32.4124 137.837 32.4124 140.484V149.255H36.3575V149.255ZM89.6914 133.37H83.8613V128.571H80.2599V133.37H77.0015V136.513H80.2591V143.794C80.2591 147.435 81.8028 149.585 85.919 149.585C87.4626 149.585 89.1766 149.089 90.3781 148.428L89.3485 145.449C88.3196 146.111 87.1197 146.276 86.2619 146.276C84.5472 146.276 83.8613 145.284 83.8613 143.628V136.513H89.6914V133.37V133.37ZM120.218 133.038C118.16 133.038 116.788 134.031 115.931 135.355V133.37H112.329V149.255H115.931V140.319C115.931 137.672 117.131 136.183 119.36 136.183C120.046 136.183 120.904 136.348 121.59 136.514L122.619 133.205C121.933 133.039 120.904 133.039 120.218 133.039V133.038ZM74.086 134.693C72.3705 133.535 69.9698 133.039 67.3973 133.039C63.2819 133.039 60.5383 135.024 60.5383 138.168C60.5383 140.816 62.596 142.305 66.1974 142.802L67.9121 142.967C69.7987 143.297 70.8276 143.794 70.8276 144.622C70.8276 145.78 69.4558 146.607 67.0543 146.607C64.6537 146.607 62.7671 145.78 61.5664 144.953L59.8516 147.6C61.7382 148.924 64.3107 149.585 66.8825 149.585C71.6846 149.585 74.429 147.435 74.429 144.456C74.429 141.643 72.1994 140.154 68.7691 139.658L67.0543 139.492C65.5107 139.326 64.3107 138.996 64.3107 138.003C64.3107 136.844 65.5107 136.183 67.3973 136.183C69.4558 136.183 71.5135 137.01 72.5423 137.506L74.086 134.693V134.693ZM169.78 133.039C167.722 133.039 166.35 134.031 165.492 135.355V133.37H161.891V149.255H165.492V140.319C165.492 137.672 166.693 136.183 168.922 136.183C169.608 136.183 170.466 136.348 171.152 136.514L172.181 133.205C171.495 133.039 170.466 133.039 169.78 133.039V133.039ZM123.819 141.312C123.819 146.111 127.249 149.585 132.566 149.585C134.966 149.585 136.681 149.089 138.396 147.766L136.681 144.953C135.309 145.945 133.938 146.441 132.394 146.441C129.478 146.441 127.421 144.456 127.421 141.312C127.421 138.334 129.478 136.348 132.394 136.183C133.938 136.183 135.309 136.679 136.681 137.672L138.396 134.859C136.681 133.535 134.966 133.039 132.566 133.039C127.249 133.039 123.819 136.514 123.819 141.312ZM157.089 141.312V133.37H153.488V135.355C152.287 133.866 150.573 133.039 148.343 133.039C143.713 133.039 140.111 136.514 140.111 141.312C140.111 146.111 143.713 149.585 148.343 149.585C150.744 149.585 152.459 148.759 153.488 147.269V149.255H157.089V141.312V141.312ZM143.884 141.312C143.884 138.499 145.771 136.183 148.857 136.183C151.773 136.183 153.831 138.334 153.831 141.312C153.831 144.125 151.773 146.441 148.857 146.441C145.771 146.276 143.884 144.125 143.884 141.312V141.312ZM100.839 133.039C96.0372 133.039 92.6069 136.348 92.6069 141.312C92.6069 146.276 96.0364 149.585 101.01 149.585C103.411 149.585 105.812 148.924 107.699 147.435L105.984 144.953C104.612 145.945 102.897 146.607 101.182 146.607C98.9527 146.607 96.7231 145.615 96.2083 142.801H108.385V141.478C108.557 136.348 105.47 133.039 100.839 133.039H100.839ZM100.839 136.017C103.068 136.017 104.613 137.341 104.955 139.823H96.3801C96.7231 137.672 98.2668 136.017 100.839 136.017ZM190.188 141.312V127.082H186.586V135.355C185.386 133.866 183.671 133.039 181.441 133.039C176.811 133.039 173.21 136.514 173.21 141.312C173.21 146.111 176.811 149.585 181.441 149.585C183.843 149.585 185.557 148.759 186.586 147.269V149.255H190.188V141.312V141.312ZM176.983 141.312C176.983 138.499 178.869 136.183 181.956 136.183C184.872 136.183 186.929 138.334 186.929 141.312C186.929 144.125 184.872 146.441 181.956 146.441C178.869 146.276 176.983 144.125 176.983 141.312V141.312ZM56.5932 141.312V133.37H52.9918V135.355C51.7911 133.866 50.0763 133.039 47.8468 133.039C43.2165 133.039 39.6152 136.514 39.6152 141.312C39.6152 146.111 43.2165 149.585 47.8468 149.585C50.2482 149.585 51.963 148.759 52.9918 147.269V149.255H56.5932V141.312V141.312ZM43.2165 141.312C43.2165 138.499 45.1032 136.183 48.1897 136.183C51.1052 136.183 53.1637 138.334 53.1637 141.312C53.1637 144.125 51.1052 146.441 48.1897 146.441C45.1032 146.276 43.2165 144.125 43.2165 141.312V141.312Z" fill="black"/>
<path d="M72.8853 12.7409H126.906V106.397H72.8853V12.7409Z" fill="#FF5F00"/>
<path d="M76.3155 59.5696C76.3155 40.5407 85.576 23.6623 99.8096 12.741C89.3492 4.79849 76.1444 0 61.7389 0C27.6103 0 0 26.6404 0 59.5696C0 92.498 27.6103 119.139 61.7382 119.139C76.1436 119.139 89.3484 114.341 99.8096 106.397C85.576 95.642 76.3155 78.5985 76.3155 59.5696V59.5696Z" fill="#EB001B"/>
<path d="M199.791 59.5696C199.791 92.498 172.181 119.139 138.053 119.139C123.647 119.139 110.443 114.341 99.9814 106.397C114.387 95.4769 123.476 78.5985 123.476 59.5696C123.476 40.5407 114.215 23.6623 99.9814 12.741C110.442 4.79849 123.647 0 138.053 0C172.181 0 199.792 26.8063 199.792 59.5696H199.791Z" fill="#F79E1B"/>
<path fill-rule="evenodd" clip-rule="evenodd" d="M208.113 289.522V287.211H207.488L206.765 288.799L206.046 287.211H205.417V289.522H205.861V287.779L206.537 289.284H206.997L207.673 287.776V289.522H208.113ZM204.147 289.522V287.606H204.949V287.215H202.905V287.606H203.706V289.522H204.147Z" fill="#0099DF"/>
<path fill-rule="evenodd" clip-rule="evenodd" d="M82.9493 205.751H137.044V299.466H82.9493V205.751Z" fill="#6C6BBD"/>
<path fill-rule="evenodd" clip-rule="evenodd" d="M86.4148 252.601C86.4148 233.59 95.6482 216.656 110.028 205.743C99.5124 197.763 86.2417 193 71.8195 193C37.6767 193 10 219.683 10 252.601C10 285.517 37.6767 312.201 71.8195 312.201C86.2417 312.201 99.5124 307.438 110.028 299.458C95.6482 288.545 86.4148 271.611 86.4148 252.601" fill="#EB001B"/>
<path fill-rule="evenodd" clip-rule="evenodd" d="M210 252.601C210 285.517 182.323 312.201 148.18 312.201C133.758 312.201 120.487 307.438 109.969 299.458C124.351 288.545 133.585 271.611 133.585 252.601C133.585 233.59 124.351 216.656 109.969 205.743C120.487 197.763 133.758 193 148.18 193C182.323 193 210 219.683 210 252.601" fill="#0099DF"/>
<path fill-rule="evenodd" clip-rule="evenodd" d="M155.283 325.929C156.002 325.929 157.036 326.062 157.826 326.362L156.725 329.605C155.971 329.305 155.216 329.207 154.493 329.207C152.157 329.207 150.99 330.662 150.99 333.277V342.151H147.417V326.327H150.955V328.249C151.883 326.858 153.223 325.929 155.283 325.929V325.929ZM142.083 329.472H136.246V336.622C136.246 338.211 136.828 339.271 138.616 339.271C139.544 339.271 140.711 338.972 141.773 338.377L142.802 341.321C141.67 342.083 139.886 342.549 138.341 342.549C134.115 342.549 132.641 340.362 132.641 336.687V329.472H129.308V326.327H132.641V321.527H136.246V326.327H142.083V329.472ZM96.3717 332.849C96.7529 330.564 98.1916 329.006 100.735 329.006C103.034 329.006 104.513 330.397 104.89 332.849H96.3717ZM108.6 334.239C108.565 329.305 105.405 325.929 100.802 325.929C95.9943 325.929 92.6293 329.305 92.6293 334.239C92.6293 339.267 96.1318 342.545 101.045 342.545C103.518 342.545 105.782 341.95 107.775 340.329L106.022 337.778C104.65 338.839 102.897 339.434 101.25 339.434C98.9502 339.434 96.8553 338.407 96.3399 335.562H108.53C108.565 335.13 108.6 334.702 108.6 334.239V334.239ZM124.292 330.367C123.298 329.768 121.273 329.006 119.178 329.006C117.22 329.006 116.053 329.704 116.053 330.863C116.053 331.921 117.287 332.219 118.832 332.417L120.515 332.648C124.088 333.148 126.25 334.603 126.25 337.384C126.25 340.397 123.502 342.549 118.765 342.549C116.084 342.549 113.612 341.886 111.655 340.495L113.337 337.812C114.54 338.707 116.328 339.468 118.801 339.468C121.238 339.468 122.543 338.775 122.543 337.547C122.543 336.657 121.615 336.157 119.658 335.895L117.975 335.664C114.3 335.164 112.307 333.576 112.307 330.995C112.307 327.85 114.988 325.929 119.143 325.929C121.753 325.929 124.123 326.494 125.837 327.585L124.292 330.367ZM168.337 329.2C167.602 329.2 166.922 329.325 166.289 329.571C165.66 329.821 165.114 330.17 164.654 330.617C164.194 331.064 163.833 331.602 163.569 332.227C163.305 332.852 163.176 333.542 163.176 334.292C163.176 335.046 163.305 335.732 163.569 336.357C163.833 336.982 164.194 337.521 164.654 337.968C165.114 338.415 165.66 338.764 166.289 339.014C166.922 339.264 167.602 339.385 168.337 339.385C169.072 339.385 169.756 339.264 170.385 339.014C171.018 338.764 171.568 338.415 172.028 337.968C172.496 337.521 172.858 336.982 173.125 336.357C173.388 335.732 173.518 335.046 173.518 334.292C173.518 333.542 173.388 332.852 173.125 332.227C172.858 331.602 172.496 331.064 172.028 330.617C171.568 330.17 171.018 329.821 170.385 329.571C169.756 329.325 169.072 329.2 168.337 329.2ZM168.337 325.929C169.611 325.929 170.79 326.142 171.875 326.57C172.96 326.994 173.899 327.582 174.689 328.328C175.483 329.074 176.1 329.957 176.548 330.973C176.997 331.992 177.221 333.099 177.221 334.292C177.221 335.486 176.997 336.592 176.548 337.612C176.1 338.627 175.483 339.514 174.689 340.26C173.899 341.007 172.96 341.59 171.875 342.019C170.79 342.443 169.611 342.655 168.337 342.655C167.063 342.655 165.884 342.443 164.799 342.019C163.715 341.59 162.783 341.007 161.996 340.26C161.211 339.514 160.593 338.627 160.145 337.612C159.697 336.592 159.473 335.486 159.473 334.292C159.473 333.099 159.697 331.992 160.145 330.973C160.593 329.957 161.211 329.074 161.996 328.328C162.783 327.582 163.715 326.994 164.799 326.57C165.884 326.142 167.063 325.929 168.337 325.929ZM75.5067 334.239C75.5067 331.458 77.3973 329.173 80.4874 329.173C83.4394 329.173 85.4325 331.359 85.4325 334.239C85.4325 337.119 83.4394 339.302 80.4874 339.302C77.3973 339.302 75.5067 337.021 75.5067 334.239ZM88.7968 334.239V326.327H85.2276V328.249C84.0917 326.824 82.378 325.929 80.0433 325.929C75.4399 325.929 71.8356 329.404 71.8356 334.239C71.8356 339.071 75.4399 342.549 80.0433 342.549C82.378 342.549 84.0917 341.655 85.2276 340.23V342.151H88.7968V334.239ZM68.6749 342.151V332.219C68.6749 328.48 66.2027 325.964 62.2204 325.929C60.1255 325.895 57.9594 326.524 56.45 328.745C55.3179 326.99 53.5297 325.929 51.0219 325.929C49.2726 325.929 47.5551 326.426 46.2143 328.279V326.327H42.645V342.151H46.2499V333.379C46.2499 330.632 47.83 329.173 50.2672 329.173C52.6376 329.173 53.8403 330.662 53.8403 333.345V342.151H57.4446V333.379C57.4446 330.632 59.0959 329.173 61.4618 329.173C63.9029 329.173 65.0706 330.662 65.0706 333.345V342.151H68.6749ZM181.069 340.965V341.356H181.442C181.525 341.356 181.596 341.336 181.643 341.306C181.694 341.276 181.722 341.222 181.722 341.158C181.722 341.094 181.694 341.044 181.643 341.014C181.596 340.98 181.525 340.965 181.442 340.965H181.069ZM181.446 340.692C181.639 340.692 181.788 340.734 181.895 340.817C182 340.901 182.052 341.014 182.052 341.158C182.052 341.279 182.012 341.378 181.926 341.457C181.843 341.534 181.722 341.582 181.568 341.602L182.063 342.151H181.678L181.218 341.606H181.069V342.151H180.746V340.692H181.446ZM181.348 342.651C181.525 342.651 181.69 342.621 181.84 342.556C181.993 342.492 182.126 342.405 182.24 342.295C182.354 342.185 182.444 342.056 182.511 341.905C182.574 341.757 182.61 341.598 182.61 341.427C182.61 341.257 182.574 341.097 182.511 340.95C182.444 340.802 182.354 340.669 182.24 340.559C182.126 340.45 181.993 340.362 181.84 340.302C181.69 340.237 181.525 340.207 181.348 340.207C181.171 340.207 181.002 340.237 180.849 340.302C180.691 340.362 180.554 340.45 180.44 340.559C180.326 340.669 180.236 340.802 180.173 340.95C180.106 341.097 180.075 341.257 180.075 341.427C180.075 341.598 180.106 341.757 180.173 341.905C180.236 342.056 180.326 342.185 180.44 342.295C180.554 342.405 180.691 342.492 180.849 342.556C181.002 342.621 181.171 342.651 181.348 342.651ZM181.348 339.855C181.58 339.855 181.792 339.896 181.993 339.98C182.197 340.059 182.37 340.173 182.524 340.317C182.673 340.457 182.791 340.624 182.877 340.817C182.964 341.007 183.007 341.211 183.007 341.427C183.007 341.643 182.964 341.848 182.877 342.038C182.791 342.227 182.673 342.394 182.524 342.534C182.37 342.678 182.197 342.791 181.993 342.875C181.792 342.958 181.58 343 181.348 343C181.112 343 180.896 342.958 180.691 342.875C180.487 342.791 180.31 342.678 180.161 342.534C180.012 342.394 179.894 342.227 179.807 342.038C179.721 341.848 179.677 341.643 179.677 341.427C179.677 341.211 179.721 341.007 179.807 340.817C179.894 340.624 180.012 340.457 180.161 340.317C180.31 340.173 180.487 340.059 180.691 339.98C180.896 339.896 181.112 339.855 181.348 339.855Z" fill="#231F20"/>
<path d="M288 193H488V211.75H288V193ZM288 324.25H488V343H288V324.25ZM457.291 295.319L455.709 287.162H437.991L435.173 295.253L420.973 295.281C430.109 272.725 436.882 256 441.3 245.144C442.455 242.303 444.509 240.859 447.527 240.878C449.836 240.897 453.609 240.897 458.845 240.878L469.818 295.3L457.291 295.328V295.319ZM441.982 275.988H453.4L449.127 255.55L441.982 275.988ZM350.473 240.869L364.745 240.887L342.682 295.319L328.227 295.309C323.345 275.903 319.755 261.503 317.464 252.137C316.764 249.259 315.373 247.253 312.682 246.306C310.291 245.462 306.309 244.15 300.727 242.378V240.878H323.536C327.482 240.878 329.782 242.847 330.527 246.878L336.164 277.713L350.473 240.869V240.869ZM384.355 240.887L373.082 295.309L359.491 295.291L370.764 240.869L384.355 240.887ZM411.918 239.875C415.973 239.875 421.1 241.169 424.045 242.378L421.664 253.666C419 252.559 414.618 251.069 410.936 251.134C405.573 251.219 402.264 253.534 402.264 255.756C402.264 259.356 408.009 261.175 413.936 265.122C420.691 269.622 421.573 273.653 421.491 278.041C421.4 287.144 413.936 296.125 398.182 296.125C390.991 296.012 388.4 295.394 382.545 293.256L385.018 281.481C390.982 284.05 393.518 284.866 398.609 284.866C403.291 284.866 407.3 282.925 407.336 279.541C407.355 277.131 405.927 275.941 400.682 272.959C395.436 269.988 388.091 265.872 388.182 257.584C388.3 246.991 398.064 239.875 411.909 239.875H411.918Z" fill="#006FCF"/>
<path fill-rule="evenodd" clip-rule="evenodd" d="M293.023 148.502H292.396C292.396 148.254 292.24 147.879 292.24 147.754C292.24 147.63 292.24 147.382 291.768 147.382H290.826V148.502H290.355V145.885H291.768C292.396 145.885 292.867 146.01 292.867 146.508C292.867 146.881 292.709 147.007 292.554 147.13C292.71 147.256 292.867 147.38 292.867 147.63V148.128C292.867 148.254 292.867 148.254 293.023 148.254V148.502ZM292.396 146.634C292.396 146.259 292.082 146.259 291.925 146.259H290.826V147.007H291.768C292.082 147.007 292.396 146.881 292.396 146.634V146.634ZM295.065 147.131C295.065 145.636 293.496 144.388 291.454 144.388C289.57 144.388 288 145.636 288 147.131C288 148.752 289.57 150 291.454 150C293.495 149.999 295.065 148.752 295.065 147.131ZM294.594 147.131C294.594 148.503 293.182 149.5 291.454 149.5C289.727 149.5 288.472 148.502 288.472 147.131C288.472 145.885 289.728 144.762 291.454 144.762C293.181 144.762 294.594 145.885 294.594 147.131ZM488 96.7579C488 100.499 485.018 102.243 479.679 102.243H469.477V98.5017H479.679C480.622 98.5017 481.406 98.3781 481.722 98.1295C482.035 97.8792 482.349 97.5046 482.349 97.0065C482.349 96.5068 482.037 96.0087 481.722 95.76C481.406 95.5098 480.78 95.3862 479.838 95.3862C474.972 95.2603 468.849 95.5098 468.849 90.0241C468.849 87.5295 470.889 84.7863 476.384 84.7863H486.901V88.5273H477.168C476.228 88.5273 475.598 88.5273 475.128 88.776C474.656 89.1506 474.343 89.5244 474.343 90.1484C474.343 90.7717 474.815 91.1462 475.442 91.3965C476.071 91.52 476.699 91.6452 477.484 91.6452H480.309C483.291 91.6452 485.176 92.1433 486.433 93.0168C487.372 93.8895 488 95.0132 488 96.7579V96.7579ZM465.865 93.0168C464.609 92.1433 462.724 91.6452 459.742 91.6452H456.917C456.133 91.6452 455.504 91.5192 454.876 91.3965C454.247 91.1462 453.779 90.7717 453.779 90.1484C453.779 89.5244 453.934 89.1506 454.562 88.776C455.034 88.5273 455.661 88.5273 456.603 88.5273H466.337V84.7863H455.819C450.166 84.7863 448.282 87.5295 448.282 90.0241C448.282 95.509 454.406 95.2603 459.272 95.3862C460.213 95.3862 460.842 95.5098 461.155 95.76C461.468 96.0087 461.784 96.5068 461.784 97.0065C461.784 97.5046 461.469 97.8792 461.155 98.1295C460.684 98.3781 460.057 98.5017 459.115 98.5017H448.91V102.243H459.115C464.45 102.243 467.434 100.498 467.434 96.7579C467.434 95.0132 466.807 93.8895 465.865 93.0168V93.0168ZM445.77 98.6284H433.371V95.1368H445.458V91.6467H433.371V88.4038H445.77V84.7886H428.19V102.244H445.77V98.6284ZM422.537 85.6613C420.81 84.913 418.77 84.7878 416.1 84.7878H404.014V102.243H409.35V95.8843H415.003C416.885 95.8843 417.985 96.0095 418.771 96.6327C419.713 97.5046 419.713 99.0014 419.713 100.124V102.243H424.892V98.8763C424.892 97.2552 424.736 96.5068 424.108 95.6349C423.636 95.1352 422.697 94.5119 421.441 94.1382C422.852 93.7652 425.209 92.2684 425.209 89.5244C425.207 87.5311 424.264 86.4081 422.537 85.6613V85.6613ZM392.71 84.7878H375.913L369.162 90.5238L362.725 84.7878H341.533V102.243H362.412L369.163 96.5068L375.599 102.243H385.804V96.3841H392.397C396.95 96.3841 401.503 95.3862 401.503 90.5238C401.502 85.7857 396.792 84.7878 392.71 84.7878V84.7878ZM418.298 92.0205C417.514 92.2684 416.729 92.2684 415.786 92.2684L409.35 92.3943V88.403H415.786C416.729 88.403 417.671 88.403 418.298 88.7768C418.927 89.0278 419.397 89.5252 419.397 90.2735C419.397 91.0227 418.927 91.6459 418.298 92.0205V92.0205ZM392.71 92.8924H385.802V88.403H392.71C394.595 88.403 395.85 89.0278 395.85 90.5238C395.85 92.0205 394.594 92.8924 392.71 92.8924ZM372.459 93.5149L380.622 86.6584V100.748L372.459 93.5149ZM359.743 98.6284H346.712V95.1368H358.329V91.6467H346.712V88.4038H359.9L365.709 93.5157L359.743 98.6284ZM473.4 72.1938H465.865L455.975 59.1016V72.1938H445.302L443.259 68.3284H432.271L430.23 72.1938H424.107C421.595 72.1938 418.298 71.6949 416.416 70.1981C414.689 68.7022 413.746 66.7073 413.746 63.5903C413.746 60.9714 414.217 58.6027 416.571 56.733C418.14 55.3606 420.967 54.7381 424.576 54.7381H429.6V58.4792H424.576C422.694 58.4792 421.594 58.7286 420.495 59.477C419.553 60.2254 419.083 61.5962 419.083 63.4667C419.083 65.3365 419.553 66.7081 420.495 67.5816C421.28 68.2041 422.694 68.4535 424.106 68.4535H426.461L433.996 54.7389H441.846L450.637 71.1968V54.7381H458.801L468.063 66.8324V54.7381H473.399V72.1938H473.4ZM411.078 54.7381H405.742V72.1938H411.078V54.7381ZM399.931 55.4865C398.204 54.7381 396.322 54.7381 393.652 54.7381H381.564V72.1938H386.744V65.8346H392.395C394.28 65.8346 395.536 65.9589 396.321 66.583C397.263 67.4557 397.104 68.9524 397.104 69.9495V72.1938H402.441V68.7022C402.441 67.2062 402.284 66.4579 401.5 65.5852C401.029 65.0862 400.086 64.4622 398.989 64.0892C400.4 63.5903 402.757 62.2187 402.757 59.4754C402.758 57.4814 401.658 56.3584 399.931 55.4865V55.4865ZM377.796 68.5787H365.551V65.087H377.638V61.4719H365.551V58.3541H377.796V54.7389H360.214V72.1946H377.796V68.5787ZM356.289 54.7381H347.655L341.219 66.583L334.311 54.7381H325.834V71.196L316.886 54.7381H309.037L299.618 72.1938H305.269L307.309 68.3284H318.298L320.339 72.1938H331.015V58.4792L338.706 72.1938H343.258L350.951 58.4792V72.1938H356.288V54.7381H356.289ZM441.377 64.5881L437.765 57.7308L434.155 64.5881H441.377ZM395.85 61.8457C395.066 62.2203 394.281 62.2203 393.182 62.2203H386.744V58.3548H393.181C394.123 58.3548 395.22 58.3548 395.849 58.6043C396.476 58.9789 396.791 59.4778 396.791 60.2254C396.791 60.973 396.477 61.5954 395.85 61.8457ZM309.193 64.5881L312.804 57.7308L316.414 64.5881H309.193ZM486.745 0H299.46V62.8427L305.896 51.2473H319.553L321.438 54.1149V51.2473H337.451L341.061 57.4814L344.515 51.2473H395.536C397.89 51.2473 399.93 51.6211 401.501 52.6181V51.2473H415.472V52.6181C417.826 51.6203 420.809 51.2473 424.263 51.2473H444.514L446.398 54.1149V51.2473H461.312L463.511 54.1149V51.2473H478.109V75.6854H463.353L460.529 71.9451V75.6854H442.161L440.121 71.6957H435.566L433.526 75.6854H423.95C420.182 75.6854 417.356 74.9371 415.474 74.1895V75.6854H392.71V70.0746C392.71 69.3262 392.554 69.2011 391.925 69.2011H391.141V75.6846H347.184V72.5676L345.615 75.6846H336.353L334.783 72.6919V75.6846H317.043L315.159 71.6949H310.607L308.567 75.6846H299.46V149.375H486.745V104.612C484.705 105.361 481.878 105.734 479.052 105.734H465.394V104.238C463.825 105.236 460.998 105.734 458.33 105.734H415.316V100.124C415.316 99.376 415.16 99.376 414.373 99.376H413.589V105.734H399.46V99.1265C397.106 99.9984 394.437 99.9984 392.082 99.9984H390.512V105.734H373.244L369.163 101.993L364.611 105.734H336.822V81.297H365.08L369.162 85.0357L373.558 81.297H392.554C394.75 81.297 398.362 81.5457 399.931 82.7914V81.297H416.885C418.612 81.297 421.91 81.5457 424.107 82.7914V81.297H449.696V82.793C451.108 81.7952 453.779 81.2978 456.132 81.2978H470.418V82.793C471.989 81.9203 474.185 81.2978 477.012 81.2978H486.745V0Z" fill="#006FCF"/>
</svg>
