<svg width="80" height="80" viewBox="0 0 80 80" fill="none" xmlns="http://www.w3.org/2000/svg">
<path d="M36.7063 77.696C37.0733 78.4066 37.5644 78.9876 38.1372 79.3889C38.71 79.7903 39.3475 80 39.9946 80C40.6417 80 41.2791 79.7903 41.852 79.3889C42.4248 78.9876 42.9158 78.4066 43.2828 77.696L79.2857 8.36743C79.7024 7.56779 79.9468 6.63118 79.9922 5.65938C80.0377 4.68757 79.8826 3.71774 79.5436 2.85524C79.2047 1.99274 78.6949 1.27057 78.0697 0.767191C77.4445 0.263811 76.7278 -0.00152706 75.9974 6.61103e-06H3.99176C3.26308 0.00401918 2.549 0.27277 1.92632 0.777355C1.30364 1.28194 0.79592 2.00327 0.457757 2.86377C0.119594 3.72427 -0.0362155 4.69139 0.00708374 5.66112C0.050383 6.63084 0.291153 7.56649 0.703501 8.36743L36.7063 77.696Z" fill="black"/>
</svg>
