<svg width="17" height="20" viewBox="0 0 17 20" fill="none" xmlns="http://www.w3.org/2000/svg">
<path d="M10.284 4.235H10.034H6.003H5.753V3.985C5.753 3.3574 5.97371 2.81673 6.41222 2.37822C6.8505 1.93995 7.39083 1.71923 8.018 1.719L10.284 4.235ZM10.284 4.235V3.985M10.284 4.235V3.985M10.284 3.985C10.284 3.3574 10.0633 2.81673 9.62478 2.37822C9.1865 1.93995 8.64617 1.71923 8.019 1.719V1.969L10.284 3.985ZM11.752 3.985V4.235H12.002H14.016C14.5137 4.235 14.9264 4.40495 15.2692 4.74778C15.612 5.0906 15.782 5.50327 15.782 6.001V18.001C15.782 18.4631 15.6151 18.8614 15.2692 19.2072C14.9264 19.55 14.5137 19.72 14.016 19.72H2.016C1.51827 19.72 1.1056 19.55 0.762776 19.2072C0.416911 18.8614 0.25 18.4631 0.25 18.001V6.001C0.25 5.50327 0.419954 5.0906 0.762776 4.74778C1.1056 4.40495 1.51827 4.235 2.016 4.235H4.032H4.282V3.985C4.282 3.27682 4.45108 2.65024 4.78491 2.0984C5.12332 1.53899 5.57099 1.09132 6.1304 0.752906C6.68224 0.419076 7.30882 0.25 8.017 0.25C8.72518 0.25 9.35176 0.419076 9.9036 0.752906C10.463 1.09132 10.9107 1.53899 11.2491 2.0984C11.5829 2.65024 11.752 3.27682 11.752 3.985ZM4.034 5.75H3.784V6V7.969C3.784 8.31188 3.90045 8.61501 4.13114 8.86539C4.36674 9.12112 4.66821 9.251 5.018 9.251C5.36779 9.251 5.66926 9.12112 5.90486 8.86539C6.13552 8.61504 6.25197 8.31195 6.252 7.96913C6.252 7.96908 6.252 7.96904 6.252 7.969L6.253 6.00013L6.25313 5.75H6.003H4.034ZM10.034 5.75H9.784V6V7.969C9.784 8.31188 9.90045 8.61501 10.1311 8.86539C10.3667 9.12112 10.6682 9.251 11.018 9.251C11.3678 9.251 11.6693 9.12112 11.9049 8.86539C12.1355 8.61504 12.252 8.31195 12.252 7.96913C12.252 7.96908 12.252 7.96904 12.252 7.969L12.253 6.00013L12.2531 5.75H12.003H10.034Z" fill="white" stroke="black" stroke-width="0.5"/>
</svg>
