<svg width="22" height="23" viewBox="0 0 22 23" fill="none" xmlns="http://www.w3.org/2000/svg">
<g filter="url(#filter0_d)">
<path d="M17.2221 14.8295H4.7777C4.65982 14.8295 4.54678 14.799 4.46343 14.7446C4.38008 14.6903 4.33325 14.6166 4.33325 14.5398C4.33325 14.4629 4.38008 14.3892 4.46343 14.3349C4.54678 14.2805 4.65982 14.25 4.7777 14.25H17.2221C17.34 14.25 17.4531 14.2805 17.5364 14.3349C17.6198 14.3892 17.6666 14.4629 17.6666 14.5398C17.6666 14.6166 17.6198 14.6903 17.5364 14.7446C17.4531 14.799 17.34 14.8295 17.2221 14.8295Z" fill="#444444"/>
<path d="M17.2221 9.55167H4.7777C4.65982 9.55167 4.54678 9.52114 4.46343 9.4668C4.38008 9.41247 4.33325 9.33877 4.33325 9.26192C4.33325 9.18507 4.38008 9.11137 4.46343 9.05703C4.54678 9.0027 4.65982 8.97217 4.7777 8.97217H17.2221C17.34 8.97217 17.4531 9.0027 17.5364 9.05703C17.6198 9.11137 17.6666 9.18507 17.6666 9.26192C17.6666 9.33877 17.6198 9.41247 17.5364 9.4668C17.4531 9.52114 17.34 9.55167 17.2221 9.55167Z" fill="#444444"/>
<path d="M17.2221 4.27383H4.7777C4.65982 4.27383 4.54678 4.24331 4.46343 4.18897C4.38008 4.13463 4.33325 4.06093 4.33325 3.98409C4.33325 3.90724 4.38008 3.83354 4.46343 3.7792C4.54678 3.72486 4.65982 3.69434 4.7777 3.69434H17.2221C17.34 3.69434 17.4531 3.72486 17.5364 3.7792C17.6198 3.83354 17.6666 3.90724 17.6666 3.98409C17.6666 4.06093 17.6198 4.13463 17.5364 4.18897C17.4531 4.24331 17.34 4.27383 17.2221 4.27383Z" fill="#444444"/>
<path d="M17.2221 4.27383H4.7777C4.65982 4.27383 4.54678 4.24331 4.46343 4.18897C4.38008 4.13463 4.33325 4.06093 4.33325 3.98409C4.33325 3.90724 4.38008 3.83354 4.46343 3.7792C4.54678 3.72486 4.65982 3.69434 4.7777 3.69434H17.2221C17.34 3.69434 17.4531 3.72486 17.5364 3.7792C17.6198 3.83354 17.6666 3.90724 17.6666 3.98409C17.6666 4.06093 17.6198 4.13463 17.5364 4.18897C17.4531 4.24331 17.34 4.27383 17.2221 4.27383Z" stroke="black"/>
</g>
<defs>
<filter id="filter0_d" x="-1" y="0" width="24" height="27" filterUnits="userSpaceOnUse" color-interpolation-filters="sRGB">
<feFlood flood-opacity="0" result="BackgroundImageFix"/>
<feColorMatrix in="SourceAlpha" type="matrix" values="0 0 0 0 0 0 0 0 0 0 0 0 0 0 0 0 0 0 127 0"/>
<feOffset dy="4"/>
<feGaussianBlur stdDeviation="2"/>
<feColorMatrix type="matrix" values="0 0 0 0 0 0 0 0 0 0 0 0 0 0 0 0 0 0 0.25 0"/>
<feBlend mode="normal" in2="BackgroundImageFix" result="effect1_dropShadow"/>
<feBlend mode="normal" in="SourceGraphic" in2="effect1_dropShadow" result="shape"/>
</filter>
</defs>
</svg>
