<svg width="61" height="61" viewBox="0 0 61 61" fill="none" xmlns="http://www.w3.org/2000/svg">
<path d="M15.32 41.1667C15.7939 40.7251 16.4207 40.4847 17.0684 40.4961C17.7161 40.5075 18.334 40.7699 18.7921 41.2279C19.2501 41.686 19.5125 42.3039 19.5239 42.9516C19.5353 43.5993 19.2949 44.2261 18.8533 44.7L8.53667 55.0133H15.8333C16.4375 55.0134 17.0211 55.2321 17.4764 55.6292C17.9317 56.0263 18.2278 56.5748 18.31 57.1733L18.3333 57.5133C18.3333 58.1764 18.0699 58.8123 17.6011 59.2811C17.1323 59.7499 16.4964 60.0133 15.8333 60.0133H2.5C1.83696 60.0133 1.20107 59.7499 0.732233 59.2811C0.263392 58.8123 0 58.1764 0 57.5133V44.18C0 43.517 0.263392 42.8811 0.732233 42.4122C1.20107 41.9434 1.83696 41.68 2.5 41.68C3.16304 41.68 3.79893 41.9434 4.26777 42.4122C4.73661 42.8811 5 43.517 5 44.18V51.48L15.32 41.1667V41.1667ZM44.1833 60.0133C43.5203 60.0133 42.8844 59.7499 42.4156 59.2811C41.9467 58.8123 41.6833 58.1764 41.6833 57.5133C41.6833 56.8503 41.9467 56.2144 42.4156 55.7456C42.8844 55.2767 43.5203 55.0133 44.1833 55.0133H51.47L41.1667 44.7C40.7433 44.2767 40.4858 43.7155 40.4412 43.1185C40.3965 42.5215 40.5676 41.9282 40.9233 41.4467L41.1667 41.1667C41.6354 40.6985 42.2708 40.4355 42.9333 40.4355C43.5958 40.4355 44.2312 40.6985 44.7 41.1667L55.0167 51.4867V44.18C55.0167 43.5759 55.2355 42.9922 55.6326 42.5369C56.0296 42.0816 56.5782 41.7855 57.1767 41.7033L57.5167 41.68C58.1797 41.68 58.8156 41.9434 59.2844 42.4122C59.7533 42.8811 60.0167 43.517 60.0167 44.18V57.5133C60.0167 58.1764 59.7533 58.8123 59.2844 59.2811C58.8156 59.7499 58.1797 60.0133 57.5167 60.0133H44.1833V60.0133ZM15.8333 0C16.4964 0 17.1323 0.263392 17.6011 0.732233C18.0699 1.20107 18.3333 1.83696 18.3333 2.5C18.3333 3.16304 18.0699 3.79893 17.6011 4.26777C17.1323 4.73661 16.4964 5 15.8333 5H8.54333L18.8533 15.3167C19.2762 15.7404 19.533 16.3018 19.5771 16.8988C19.6211 17.4958 19.4495 18.0888 19.0933 18.57L18.85 18.8533C18.3812 19.3215 17.7458 19.5845 17.0833 19.5845C16.4208 19.5845 15.7854 19.3215 15.3167 18.8533L5 8.52333V15.8333C4.99997 16.4375 4.78119 17.0211 4.38411 17.4764C3.98703 17.9317 3.43851 18.2278 2.84 18.31L2.5 18.3333C1.83696 18.3333 1.20107 18.0699 0.732233 17.6011C0.263392 17.1323 0 16.4964 0 15.8333V2.5C0 1.83696 0.263392 1.20107 0.732233 0.732233C1.20107 0.263392 1.83696 0 2.5 0H15.8333ZM57.5167 0C58.1797 0 58.8156 0.263392 59.2844 0.732233C59.7533 1.20107 60.0167 1.83696 60.0167 2.5V15.8333C60.0167 16.4964 59.7533 17.1323 59.2844 17.6011C58.8156 18.0699 58.1797 18.3333 57.5167 18.3333C56.8536 18.3333 56.2177 18.0699 55.7489 17.6011C55.2801 17.1323 55.0167 16.4964 55.0167 15.8333V8.53L44.7 18.85C44.2767 19.2734 43.7155 19.5308 43.1185 19.5755C42.5215 19.6201 41.9282 19.449 41.4467 19.0933L41.1667 18.85C40.6985 18.3812 40.4355 17.7458 40.4355 17.0833C40.4355 16.4208 40.6985 15.7854 41.1667 15.3167L51.4733 5H44.1833C43.5792 4.99997 42.9955 4.78119 42.5402 4.38411C42.0849 3.98703 41.7888 3.43851 41.7067 2.84L41.6833 2.5C41.6833 1.83696 41.9467 1.20107 42.4156 0.732233C42.8844 0.263392 43.5203 0 44.1833 0H57.5167V0Z" fill="black"/>
</svg>
