<svg width="1938" height="1714" viewBox="0 0 1938 1714" fill="none" xmlns="http://www.w3.org/2000/svg">
<rect width="1938" height="1714" fill="black"/>
<path d="M261.49 855.848C252.871 855.848 246.003 853.289 240.886 848.172C235.903 843.055 233.412 835.513 233.412 825.548V800.5C233.412 794.036 231.796 788.582 228.564 784.138C225.466 779.694 220.618 777.472 214.02 777.472H202.708V839.688C202.708 841.439 203.044 842.718 203.718 843.526C204.526 844.199 205.805 844.536 207.556 844.536H225.332V851H153.824V844.536H167.964C169.849 844.536 171.128 844.199 171.802 843.526C172.475 842.718 172.812 841.439 172.812 839.688V718.488C172.812 716.603 172.475 715.323 171.802 714.65C171.128 713.977 169.849 713.64 167.964 713.64H153.824V707.176H219.272C233.816 707.176 245.532 710.408 254.42 716.872C263.308 723.201 267.752 731.82 267.752 742.728C267.752 752.02 264.318 759.359 257.45 764.746C250.716 770.133 241.761 773.499 230.584 774.846V776.26C241.088 778.145 249.168 781.916 254.824 787.572C260.48 793.093 263.308 801.779 263.308 813.63V836.052C263.308 841.708 265.193 844.536 268.964 844.536C272.465 844.536 275.024 841.641 276.64 835.85C278.256 830.059 279.064 822.989 279.064 814.64H285.528C285.528 827.703 283.777 837.87 280.276 845.142C276.774 852.279 270.512 855.848 261.49 855.848ZM216.242 771.008C223.379 771.008 228.362 768.382 231.19 763.13C234.018 757.878 235.432 750.539 235.432 741.112C235.432 731.955 234.018 725.087 231.19 720.508C228.362 715.929 223.379 713.64 216.242 713.64H207.556C205.805 713.64 204.526 713.977 203.718 714.65C203.044 715.323 202.708 716.603 202.708 718.488V771.008H216.242ZM413.537 854.636C401.417 854.636 391.385 852.279 383.439 847.566C375.494 842.718 369.636 836.456 365.865 828.78C362.229 820.969 360.411 812.418 360.411 803.126V718.488C360.411 716.603 360.075 715.323 359.401 714.65C358.728 713.977 357.449 713.64 355.563 713.64H342.635V707.176H408.083V713.64H395.155C393.405 713.64 392.125 713.977 391.317 714.65C390.644 715.323 390.307 716.603 390.307 718.488V811.004C390.307 823.393 392.664 832.416 397.377 838.072C402.091 843.728 409.363 846.556 419.193 846.556C425.792 846.556 431.717 844.94 436.969 841.708C442.221 838.476 446.329 834.167 449.291 828.78C452.254 823.393 453.735 817.468 453.735 811.004V731.82C453.735 725.76 451.648 721.249 447.473 718.286C443.433 715.189 438.518 713.64 432.727 713.64V707.176H482.823V713.64C477.033 713.64 472.05 715.189 467.875 718.286C463.835 721.249 461.815 725.76 461.815 731.82V808.984C461.815 817.468 459.863 825.211 455.957 832.214C452.187 839.082 446.598 844.536 439.191 848.576C431.919 852.616 423.368 854.636 413.537 854.636ZM552.3 844.536H566.44C568.326 844.536 569.605 844.199 570.278 843.526C570.952 842.718 571.288 841.439 571.288 839.688V718.488C571.288 716.603 570.952 715.323 570.278 714.65C569.605 713.977 568.326 713.64 566.44 713.64H552.3V707.176H623.404C631.35 707.176 638.756 708.657 645.624 711.62C652.627 714.583 658.216 718.69 662.39 723.942C666.565 729.059 668.652 734.917 668.652 741.516C668.652 750.404 665.353 757.609 658.754 763.13C652.156 768.651 644.076 772.691 634.514 775.25V776.462C640.709 777.405 646.769 779.425 652.694 782.522C658.754 785.485 663.737 789.457 667.642 794.44C671.548 799.423 673.5 805.213 673.5 811.812C673.5 820.027 671.346 827.097 667.036 833.022C662.727 838.947 656.936 843.459 649.664 846.556C642.527 849.519 634.649 851 626.03 851H552.3V844.536ZM619.768 772.624C627.04 772.624 631.956 770.065 634.514 764.948C637.073 759.696 638.352 751.885 638.352 741.516C638.352 732.763 636.804 725.962 633.706 721.114C630.609 716.131 626.367 713.64 620.98 713.64H606.032C604.282 713.64 603.002 713.977 602.194 714.65C601.521 715.323 601.184 716.603 601.184 718.488V772.624H619.768ZM619.768 844.536C626.906 844.536 632.225 842.179 635.726 837.466C639.362 832.618 641.18 824.067 641.18 811.812C641.18 799.557 639.362 791.073 635.726 786.36C632.225 781.512 626.906 779.088 619.768 779.088H601.184V839.688C601.184 841.439 601.521 842.718 602.194 843.526C603.002 844.199 604.282 844.536 606.032 844.536H619.768ZM736.067 844.536H742.935C746.975 844.536 750.543 842.987 753.641 839.89C756.738 836.658 759.095 832.753 760.711 828.174L803.333 703.54H811.817L855.045 834.234C857.334 841.102 861.307 844.536 866.963 844.536H875.043V851H804.141V844.536H818.685C820.301 844.536 821.58 843.93 822.523 842.718C823.6 841.371 824.139 839.823 824.139 838.072C824.139 836.591 823.735 834.638 822.927 832.214L816.463 812.822H774.043L769.801 825.144C768.319 828.915 767.579 832.349 767.579 835.446C767.579 837.87 768.521 840.025 770.407 841.91C772.427 843.661 774.985 844.536 778.083 844.536H787.577V851H736.067V844.536ZM776.669 805.348H814.039L795.657 749.798L776.669 805.348ZM993.022 854.636C980.498 854.636 969.792 851.135 960.904 844.132C952.15 836.995 945.552 827.703 941.108 816.256C936.664 804.675 934.442 792.285 934.442 779.088C934.442 765.487 936.731 752.963 941.31 741.516C945.888 729.935 952.42 720.71 960.904 713.842C969.522 706.974 979.555 703.54 991.002 703.54C995.984 703.54 1000.56 704.415 1004.74 706.166C1009.05 707.782 1013.56 710.206 1018.27 713.438C1021.37 715.458 1023.66 716.468 1025.14 716.468C1026.22 716.468 1027.09 716.199 1027.77 715.66C1028.44 714.987 1029.05 713.977 1029.58 712.63L1033.22 705.156H1039.89V767.17H1033.42C1030.32 749.798 1024.94 735.927 1017.26 725.558C1009.72 715.189 1000.97 710.004 991.002 710.004C984.672 710.004 979.353 713.101 975.044 719.296C970.869 725.491 968.782 735.321 968.782 748.788V809.388C968.782 822.72 971.138 832.551 975.852 838.88C980.7 845.075 986.423 848.172 993.022 848.172C1009.05 848.172 1020.97 840.833 1028.78 826.154C1032.68 819.017 1035.31 808.782 1036.65 795.45H1043.93C1043.52 801.375 1042.58 807.368 1041.1 813.428C1039.75 819.353 1037.93 824.538 1035.64 828.982C1031.47 837.062 1025.75 843.391 1018.47 847.97C1011.34 852.414 1002.85 854.636 993.022 854.636ZM1176.87 854.636C1164.35 854.636 1153.64 851.135 1144.76 844.132C1136 836.995 1129.4 827.703 1124.96 816.256C1120.52 804.675 1118.29 792.285 1118.29 779.088C1118.29 765.487 1120.58 752.963 1125.16 741.516C1129.74 729.935 1136.27 720.71 1144.76 713.842C1153.37 706.974 1163.41 703.54 1174.85 703.54C1179.84 703.54 1184.41 704.415 1188.59 706.166C1192.9 707.782 1197.41 710.206 1202.12 713.438C1205.22 715.458 1207.51 716.468 1208.99 716.468C1210.07 716.468 1210.94 716.199 1211.62 715.66C1212.29 714.987 1212.9 713.977 1213.44 712.63L1217.07 705.156H1223.74V767.17H1217.27C1214.18 749.798 1208.79 735.927 1201.11 725.558C1193.57 715.189 1184.82 710.004 1174.85 710.004C1168.52 710.004 1163.2 713.101 1158.9 719.296C1154.72 725.491 1152.63 735.321 1152.63 748.788V809.388C1152.63 822.72 1154.99 832.551 1159.7 838.88C1164.55 845.075 1170.27 848.172 1176.87 848.172C1192.9 848.172 1204.82 840.833 1212.63 826.154C1216.53 819.017 1219.16 808.782 1220.51 795.45H1227.78C1227.37 801.375 1226.43 807.368 1224.95 813.428C1223.6 819.353 1221.78 824.538 1219.5 828.982C1215.32 837.062 1209.6 843.391 1202.33 847.97C1195.19 852.414 1186.7 854.636 1176.87 854.636ZM1300.53 844.536H1314.67C1316.55 844.536 1317.83 844.199 1318.51 843.526C1319.18 842.718 1319.52 841.439 1319.52 839.688V718.488C1319.52 716.603 1319.18 715.323 1318.51 714.65C1317.83 713.977 1316.55 713.64 1314.67 713.64H1300.53V707.176H1368.4V713.64H1354.26C1352.51 713.64 1351.23 713.977 1350.42 714.65C1349.75 715.323 1349.41 716.603 1349.41 718.488V839.688C1349.41 841.439 1349.75 842.718 1350.42 843.526C1351.23 844.199 1352.51 844.536 1354.26 844.536H1368.4V851H1300.53V844.536ZM1471.51 746.566H1470.7V823.528C1470.7 829.723 1473.06 834.773 1477.77 838.678C1482.62 842.583 1488.75 844.536 1496.15 844.536V851H1437.17V844.536C1444.57 844.536 1450.63 842.583 1455.35 838.678C1460.2 834.773 1462.62 829.723 1462.62 823.528V737.274C1462.62 735.793 1462.49 734.715 1462.22 734.042C1461.95 733.369 1461.34 732.359 1460.4 731.012L1452.32 718.892C1450.97 716.872 1449.49 715.525 1447.87 714.852C1446.26 714.044 1443.9 713.64 1440.8 713.64H1437.17V707.176H1482.01L1546.65 799.49V734.648C1546.65 728.453 1544.23 723.403 1539.38 719.498C1534.67 715.593 1528.61 713.64 1521.2 713.64V707.176H1580.18V713.64C1572.78 713.64 1566.65 715.593 1561.8 719.498C1557.09 723.403 1554.73 728.453 1554.73 734.648V854.636H1547.06L1471.51 746.566ZM1644.76 844.536H1658.9C1660.78 844.536 1662.06 844.199 1662.74 843.526C1663.41 842.718 1663.75 841.439 1663.75 839.688V718.488C1663.75 716.603 1663.41 715.323 1662.74 714.65C1662.06 713.977 1660.78 713.64 1658.9 713.64H1644.76V707.176H1758.28L1759.49 754.04H1753.03C1753.03 753.097 1752.29 750.067 1750.81 744.95C1749.46 739.833 1747.51 735.187 1744.95 731.012C1741.85 725.625 1738.28 721.383 1734.24 718.286C1730.2 715.189 1725.69 713.64 1720.71 713.64H1698.49C1696.74 713.64 1695.46 713.977 1694.65 714.65C1693.98 715.323 1693.64 716.603 1693.64 718.488V774.24H1703.94C1707.58 774.24 1710.95 772.759 1714.04 769.796C1717.14 766.833 1719.56 763.197 1721.32 758.888C1723.2 754.444 1724.14 750.269 1724.14 746.364H1730.61V809.59H1724.14C1724.14 805.55 1723.2 801.375 1721.32 797.066C1719.56 792.622 1717.14 788.919 1714.04 785.956C1710.95 782.993 1707.58 781.512 1703.94 781.512H1693.64V839.688C1693.64 841.439 1693.98 842.718 1694.65 843.526C1695.46 844.199 1696.74 844.536 1698.49 844.536H1720.51C1727.91 844.536 1734.11 841.573 1739.09 835.648C1744.07 829.723 1747.84 823.124 1750.4 815.852C1751.48 812.755 1752.42 808.917 1753.23 804.338C1754.04 799.759 1754.51 796.729 1754.65 795.248H1761.11L1759.9 851H1644.76V844.536Z" fill="white"/>
</svg>
