<svg width="4512" height="3269" viewBox="0 0 4512 3269" fill="none" xmlns="http://www.w3.org/2000/svg">
<rect width="4512" height="3269" fill="black"/>
<path d="M1098.7 1826.69C1085.9 1826.69 1075.7 1822.89 1068.1 1815.29C1060.7 1807.69 1057 1796.49 1057 1781.69V1744.49C1057 1734.89 1054.6 1726.79 1049.8 1720.19C1045.2 1713.59 1038 1710.29 1028.2 1710.29H1011.4V1802.69C1011.4 1805.29 1011.9 1807.19 1012.9 1808.39C1014.1 1809.39 1016 1809.89 1018.6 1809.89H1045V1819.49H938.805V1809.89H959.805C962.605 1809.89 964.505 1809.39 965.505 1808.39C966.505 1807.19 967.005 1805.29 967.005 1802.69V1622.69C967.005 1619.89 966.505 1617.99 965.505 1616.99C964.505 1615.99 962.605 1615.49 959.805 1615.49H938.805V1605.89H1036C1057.6 1605.89 1075 1610.69 1088.2 1620.29C1101.4 1629.69 1108 1642.49 1108 1658.69C1108 1672.49 1102.9 1683.39 1092.7 1691.39C1082.7 1699.39 1069.4 1704.39 1052.8 1706.39V1708.49C1068.4 1711.29 1080.4 1716.89 1088.8 1725.29C1097.2 1733.49 1101.4 1746.39 1101.4 1763.99V1797.29C1101.4 1805.69 1104.2 1809.89 1109.8 1809.89C1115 1809.89 1118.8 1805.59 1121.2 1796.99C1123.6 1788.39 1124.8 1777.89 1124.8 1765.49H1134.4C1134.4 1784.89 1131.8 1799.99 1126.6 1810.79C1121.4 1821.39 1112.1 1826.69 1098.7 1826.69ZM1031.5 1700.69C1042.1 1700.69 1049.5 1696.79 1053.7 1688.99C1057.9 1681.19 1060 1670.29 1060 1656.29C1060 1642.69 1057.9 1632.49 1053.7 1625.69C1049.5 1618.89 1042.1 1615.49 1031.5 1615.49H1018.6C1016 1615.49 1014.1 1615.99 1012.9 1616.99C1011.9 1617.99 1011.4 1619.89 1011.4 1622.69V1700.69H1031.5ZM1348.52 1824.89C1330.52 1824.89 1315.62 1821.39 1303.82 1814.39C1292.02 1807.19 1283.32 1797.89 1277.72 1786.49C1272.32 1774.89 1269.62 1762.19 1269.62 1748.39V1622.69C1269.62 1619.89 1269.12 1617.99 1268.12 1616.99C1267.12 1615.99 1265.22 1615.49 1262.42 1615.49H1243.22V1605.89H1340.42V1615.49H1321.22C1318.62 1615.49 1316.72 1615.99 1315.52 1616.99C1314.52 1617.99 1314.02 1619.89 1314.02 1622.69V1760.09C1314.02 1778.49 1317.52 1791.89 1324.52 1800.29C1331.52 1808.69 1342.32 1812.89 1356.92 1812.89C1366.72 1812.89 1375.52 1810.49 1383.32 1805.69C1391.12 1800.89 1397.22 1794.49 1401.62 1786.49C1406.02 1778.49 1408.22 1769.69 1408.22 1760.09V1642.49C1408.22 1633.49 1405.12 1626.79 1398.92 1622.39C1392.92 1617.79 1385.62 1615.49 1377.02 1615.49V1605.89H1451.42V1615.49C1442.82 1615.49 1435.42 1617.79 1429.22 1622.39C1423.22 1626.79 1420.22 1633.49 1420.22 1642.49V1757.09C1420.22 1769.69 1417.32 1781.19 1411.52 1791.59C1405.92 1801.79 1397.62 1809.89 1386.62 1815.89C1375.82 1821.89 1363.12 1824.89 1348.52 1824.89ZM1578.6 1809.89H1599.6C1602.4 1809.89 1604.3 1809.39 1605.3 1808.39C1606.3 1807.19 1606.8 1805.29 1606.8 1802.69V1622.69C1606.8 1619.89 1606.3 1617.99 1605.3 1616.99C1604.3 1615.99 1602.4 1615.49 1599.6 1615.49H1578.6V1605.89H1684.2C1696 1605.89 1707 1608.09 1717.2 1612.49C1727.6 1616.89 1735.9 1622.99 1742.1 1630.79C1748.3 1638.39 1751.4 1647.09 1751.4 1656.89C1751.4 1670.09 1746.5 1680.79 1736.7 1688.99C1726.9 1697.19 1714.9 1703.19 1700.7 1706.99V1708.79C1709.9 1710.19 1718.9 1713.19 1727.7 1717.79C1736.7 1722.19 1744.1 1728.09 1749.9 1735.49C1755.7 1742.89 1758.6 1751.49 1758.6 1761.29C1758.6 1773.49 1755.4 1783.99 1749 1792.79C1742.6 1801.59 1734 1808.29 1723.2 1812.89C1712.6 1817.29 1700.9 1819.49 1688.1 1819.49H1578.6V1809.89ZM1678.8 1703.09C1689.6 1703.09 1696.9 1699.29 1700.7 1691.69C1704.5 1683.89 1706.4 1672.29 1706.4 1656.89C1706.4 1643.89 1704.1 1633.79 1699.5 1626.59C1694.9 1619.19 1688.6 1615.49 1680.6 1615.49H1658.4C1655.8 1615.49 1653.9 1615.99 1652.7 1616.99C1651.7 1617.99 1651.2 1619.89 1651.2 1622.69V1703.09H1678.8ZM1678.8 1809.89C1689.4 1809.89 1697.3 1806.39 1702.5 1799.39C1707.9 1792.19 1710.6 1779.49 1710.6 1761.29C1710.6 1743.09 1707.9 1730.49 1702.5 1723.49C1697.3 1716.29 1689.4 1712.69 1678.8 1712.69H1651.2V1802.69C1651.2 1805.29 1651.7 1807.19 1652.7 1808.39C1653.9 1809.39 1655.8 1809.89 1658.4 1809.89H1678.8ZM1875.52 1809.89H1885.72C1891.72 1809.89 1897.02 1807.59 1901.62 1802.99C1906.22 1798.19 1909.72 1792.39 1912.12 1785.59L1975.42 1600.49H1988.02L2052.22 1794.59C2055.62 1804.79 2061.52 1809.89 2069.92 1809.89H2081.92V1819.49H1976.62V1809.89H1998.22C2000.62 1809.89 2002.52 1808.99 2003.92 1807.19C2005.52 1805.19 2006.32 1802.89 2006.32 1800.29C2006.32 1798.09 2005.72 1795.19 2004.52 1791.59L1994.92 1762.79H1931.92L1925.62 1781.09C1923.42 1786.69 1922.32 1791.79 1922.32 1796.39C1922.32 1799.99 1923.72 1803.19 1926.52 1805.99C1929.52 1808.59 1933.32 1809.89 1937.92 1809.89H1952.02V1819.49H1875.52V1809.89ZM1935.82 1751.69H1991.32L1964.02 1669.19L1935.82 1751.69ZM2281.14 1824.89C2262.54 1824.89 2246.64 1819.69 2233.44 1809.29C2220.44 1798.69 2210.64 1784.89 2204.04 1767.89C2197.44 1750.69 2194.14 1732.29 2194.14 1712.69C2194.14 1692.49 2197.54 1673.89 2204.34 1656.89C2211.14 1639.69 2220.84 1625.99 2233.44 1615.79C2246.24 1605.59 2261.14 1600.49 2278.14 1600.49C2285.54 1600.49 2292.34 1601.79 2298.54 1604.39C2304.94 1606.79 2311.64 1610.39 2318.64 1615.19C2323.24 1618.19 2326.64 1619.69 2328.84 1619.69C2330.44 1619.69 2331.74 1619.29 2332.74 1618.49C2333.74 1617.49 2334.64 1615.99 2335.44 1613.99L2340.84 1602.89H2350.74V1694.99H2341.14C2336.54 1669.19 2328.54 1648.59 2317.14 1633.19C2305.94 1617.79 2292.94 1610.09 2278.14 1610.09C2268.74 1610.09 2260.84 1614.69 2254.44 1623.89C2248.24 1633.09 2245.14 1647.69 2245.14 1667.69V1757.69C2245.14 1777.49 2248.64 1792.09 2255.64 1801.49C2262.84 1810.69 2271.34 1815.29 2281.14 1815.29C2304.94 1815.29 2322.64 1804.39 2334.24 1782.59C2340.04 1771.99 2343.94 1756.79 2345.94 1736.99H2356.74C2356.14 1745.79 2354.74 1754.69 2352.54 1763.69C2350.54 1772.49 2347.84 1780.19 2344.44 1786.79C2338.24 1798.79 2329.74 1808.19 2318.94 1814.99C2308.34 1821.59 2295.74 1824.89 2281.14 1824.89ZM2578.19 1824.89C2559.59 1824.89 2543.69 1819.69 2530.49 1809.29C2517.49 1798.69 2507.69 1784.89 2501.09 1767.89C2494.49 1750.69 2491.19 1732.29 2491.19 1712.69C2491.19 1692.49 2494.59 1673.89 2501.39 1656.89C2508.19 1639.69 2517.89 1625.99 2530.49 1615.79C2543.29 1605.59 2558.19 1600.49 2575.19 1600.49C2582.59 1600.49 2589.39 1601.79 2595.59 1604.39C2601.99 1606.79 2608.69 1610.39 2615.69 1615.19C2620.29 1618.19 2623.69 1619.69 2625.89 1619.69C2627.49 1619.69 2628.79 1619.29 2629.79 1618.49C2630.79 1617.49 2631.69 1615.99 2632.49 1613.99L2637.89 1602.89H2647.79V1694.99H2638.19C2633.59 1669.19 2625.59 1648.59 2614.19 1633.19C2602.99 1617.79 2589.99 1610.09 2575.19 1610.09C2565.79 1610.09 2557.89 1614.69 2551.49 1623.89C2545.29 1633.09 2542.19 1647.69 2542.19 1667.69V1757.69C2542.19 1777.49 2545.69 1792.09 2552.69 1801.49C2559.89 1810.69 2568.39 1815.29 2578.19 1815.29C2601.99 1815.29 2619.69 1804.39 2631.29 1782.59C2637.09 1771.99 2640.99 1756.79 2642.99 1736.99H2653.79C2653.19 1745.79 2651.79 1754.69 2649.59 1763.69C2647.59 1772.49 2644.89 1780.19 2641.49 1786.79C2635.29 1798.79 2626.79 1808.19 2615.99 1814.99C2605.39 1821.59 2592.79 1824.89 2578.19 1824.89ZM2785.83 1809.89H2806.83C2809.63 1809.89 2811.53 1809.39 2812.53 1808.39C2813.53 1807.19 2814.03 1805.29 2814.03 1802.69V1622.69C2814.03 1619.89 2813.53 1617.99 2812.53 1616.99C2811.53 1615.99 2809.63 1615.49 2806.83 1615.49H2785.83V1605.89H2886.63V1615.49H2865.63C2863.03 1615.49 2861.13 1615.99 2859.93 1616.99C2858.93 1617.99 2858.43 1619.89 2858.43 1622.69V1802.69C2858.43 1805.29 2858.93 1807.19 2859.93 1808.39C2861.13 1809.39 2863.03 1809.89 2865.63 1809.89H2886.63V1819.49H2785.83V1809.89ZM3063.76 1664.39H3062.56V1778.69C3062.56 1787.89 3066.06 1795.39 3073.06 1801.19C3080.26 1806.99 3089.36 1809.89 3100.36 1809.89V1819.49H3012.76V1809.89C3023.76 1809.89 3032.76 1806.99 3039.76 1801.19C3046.96 1795.39 3050.56 1787.89 3050.56 1778.69V1650.59C3050.56 1648.39 3050.36 1646.79 3049.96 1645.79C3049.56 1644.79 3048.66 1643.29 3047.26 1641.29L3035.26 1623.29C3033.26 1620.29 3031.06 1618.29 3028.66 1617.29C3026.26 1616.09 3022.76 1615.49 3018.16 1615.49H3012.76V1605.89H3079.36L3175.36 1742.99V1646.69C3175.36 1637.49 3171.76 1629.99 3164.56 1624.19C3157.56 1618.39 3148.56 1615.49 3137.56 1615.49V1605.89H3225.16V1615.49C3214.16 1615.49 3205.06 1618.39 3197.86 1624.19C3190.86 1629.99 3187.36 1637.49 3187.36 1646.69V1824.89H3175.96L3063.76 1664.39ZM3345.06 1809.89H3366.06C3368.86 1809.89 3370.76 1809.39 3371.76 1808.39C3372.76 1807.19 3373.26 1805.29 3373.26 1802.69V1622.69C3373.26 1619.89 3372.76 1617.99 3371.76 1616.99C3370.76 1615.99 3368.86 1615.49 3366.06 1615.49H3345.06V1605.89H3513.66L3515.46 1675.49H3505.86C3505.86 1674.09 3504.76 1669.59 3502.56 1661.99C3500.56 1654.39 3497.66 1647.49 3493.86 1641.29C3489.26 1633.29 3483.96 1626.99 3477.96 1622.39C3471.96 1617.79 3465.26 1615.49 3457.86 1615.49H3424.86C3422.26 1615.49 3420.36 1615.99 3419.16 1616.99C3418.16 1617.99 3417.66 1619.89 3417.66 1622.69V1705.49H3432.96C3438.36 1705.49 3443.36 1703.29 3447.96 1698.89C3452.56 1694.49 3456.16 1689.09 3458.76 1682.69C3461.56 1676.09 3462.96 1669.89 3462.96 1664.09H3472.56V1757.99H3462.96C3462.96 1751.99 3461.56 1745.79 3458.76 1739.39C3456.16 1732.79 3452.56 1727.29 3447.96 1722.89C3443.36 1718.49 3438.36 1716.29 3432.96 1716.29H3417.66V1802.69C3417.66 1805.29 3418.16 1807.19 3419.16 1808.39C3420.36 1809.39 3422.26 1809.89 3424.86 1809.89H3457.56C3468.56 1809.89 3477.76 1805.49 3485.16 1796.69C3492.56 1787.89 3498.16 1778.09 3501.96 1767.29C3503.56 1762.69 3504.96 1756.99 3506.16 1750.19C3507.36 1743.39 3508.06 1738.89 3508.26 1736.69H3517.86L3516.06 1819.49H3345.06V1809.89Z" fill="white"/>
</svg>
