<svg width="3402" height="1776" viewBox="0 0 3402 1776" fill="none" xmlns="http://www.w3.org/2000/svg">
<rect width="3402" height="1776" fill="black"/>
<path d="M984.047 880.192C975.429 880.192 968.561 877.634 963.443 872.516C958.461 867.399 955.969 859.858 955.969 849.892V824.844C955.969 818.38 954.353 812.926 951.121 808.482C948.024 804.038 943.176 801.816 936.577 801.816H925.265V864.032C925.265 865.783 925.602 867.062 926.275 867.87C927.083 868.544 928.363 868.88 930.113 868.88H947.889V875.344H876.381V868.88H890.521C892.407 868.88 893.686 868.544 894.359 867.87C895.033 867.062 895.369 865.783 895.369 864.032V742.832C895.369 740.947 895.033 739.668 894.359 738.994C893.686 738.321 892.407 737.984 890.521 737.984H876.381V731.52H941.829C956.373 731.52 968.089 734.752 976.977 741.216C985.865 747.546 990.309 756.164 990.309 767.072C990.309 776.364 986.875 783.704 980.007 789.09C973.274 794.477 964.319 797.844 953.141 799.19V800.604C963.645 802.49 971.725 806.26 977.381 811.916C983.037 817.438 985.865 826.124 985.865 837.974V860.396C985.865 866.052 987.751 868.88 991.521 868.88C995.023 868.88 997.581 865.985 999.197 860.194C1000.81 854.404 1001.62 847.334 1001.62 838.984H1008.09C1008.09 852.047 1006.33 862.214 1002.83 869.486C999.332 876.624 993.07 880.192 984.047 880.192ZM938.799 795.352C945.937 795.352 950.919 792.726 953.747 787.474C956.575 782.222 957.989 774.883 957.989 765.456C957.989 756.299 956.575 749.431 953.747 744.852C950.919 740.274 945.937 737.984 938.799 737.984H930.113C928.363 737.984 927.083 738.321 926.275 738.994C925.602 739.668 925.265 740.947 925.265 742.832V795.352H938.799ZM1136.09 878.98C1123.97 878.98 1113.94 876.624 1106 871.91C1098.05 867.062 1092.19 860.8 1088.42 853.124C1084.79 845.314 1082.97 836.762 1082.97 827.47V742.832C1082.97 740.947 1082.63 739.668 1081.96 738.994C1081.29 738.321 1080.01 737.984 1078.12 737.984H1065.19V731.52H1130.64V737.984H1117.71C1115.96 737.984 1114.68 738.321 1113.87 738.994C1113.2 739.668 1112.86 740.947 1112.86 742.832V835.348C1112.86 847.738 1115.22 856.76 1119.93 862.416C1124.65 868.072 1131.92 870.9 1141.75 870.9C1148.35 870.9 1154.27 869.284 1159.53 866.052C1164.78 862.82 1168.89 858.511 1171.85 853.124C1174.81 847.738 1176.29 841.812 1176.29 835.348V756.164C1176.29 750.104 1174.21 745.593 1170.03 742.63C1165.99 739.533 1161.08 737.984 1155.28 737.984V731.52H1205.38V737.984C1199.59 737.984 1194.61 739.533 1190.43 742.63C1186.39 745.593 1184.37 750.104 1184.37 756.164V833.328C1184.37 841.812 1182.42 849.556 1178.51 856.558C1174.74 863.426 1169.16 868.88 1161.75 872.92C1154.48 876.96 1145.93 878.98 1136.09 878.98ZM1274.86 868.88H1289C1290.88 868.88 1292.16 868.544 1292.84 867.87C1293.51 867.062 1293.85 865.783 1293.85 864.032V742.832C1293.85 740.947 1293.51 739.668 1292.84 738.994C1292.16 738.321 1290.88 737.984 1289 737.984H1274.86V731.52H1345.96C1353.91 731.52 1361.31 733.002 1368.18 735.964C1375.18 738.927 1380.77 743.034 1384.95 748.286C1389.12 753.404 1391.21 759.262 1391.21 765.86C1391.21 774.748 1387.91 781.953 1381.31 787.474C1374.71 792.996 1366.63 797.036 1357.07 799.594V800.806C1363.27 801.749 1369.33 803.769 1375.25 806.866C1381.31 809.829 1386.29 813.802 1390.2 818.784C1394.11 823.767 1396.06 829.558 1396.06 836.156C1396.06 844.371 1393.9 851.441 1389.59 857.366C1385.28 863.292 1379.49 867.803 1372.22 870.9C1365.08 873.863 1357.21 875.344 1348.59 875.344H1274.86V868.88ZM1342.33 796.968C1349.6 796.968 1354.51 794.41 1357.07 789.292C1359.63 784.04 1360.91 776.23 1360.91 765.86C1360.91 757.107 1359.36 750.306 1356.26 745.458C1353.17 740.476 1348.92 737.984 1343.54 737.984H1328.59C1326.84 737.984 1325.56 738.321 1324.75 738.994C1324.08 739.668 1323.74 740.947 1323.74 742.832V796.968H1342.33ZM1342.33 868.88C1349.46 868.88 1354.78 866.524 1358.28 861.81C1361.92 856.962 1363.74 848.411 1363.74 836.156C1363.74 823.902 1361.92 815.418 1358.28 810.704C1354.78 805.856 1349.46 803.432 1342.33 803.432H1323.74V864.032C1323.74 865.783 1324.08 867.062 1324.75 867.87C1325.56 868.544 1326.84 868.88 1328.59 868.88H1342.33ZM1458.62 868.88H1465.49C1469.53 868.88 1473.1 867.332 1476.2 864.234C1479.3 861.002 1481.65 857.097 1483.27 852.518L1525.89 727.884H1534.37L1577.6 858.578C1579.89 865.446 1583.86 868.88 1589.52 868.88H1597.6V875.344H1526.7V868.88H1541.24C1542.86 868.88 1544.14 868.274 1545.08 867.062C1546.16 865.716 1546.7 864.167 1546.7 862.416C1546.7 860.935 1546.29 858.982 1545.48 856.558L1539.02 837.166H1496.6L1492.36 849.488C1490.88 853.259 1490.14 856.693 1490.14 859.79C1490.14 862.214 1491.08 864.369 1492.96 866.254C1494.98 868.005 1497.54 868.88 1500.64 868.88H1510.13V875.344H1458.62V868.88ZM1499.23 829.692H1536.6L1518.21 774.142L1499.23 829.692ZM1715.58 878.98C1703.06 878.98 1692.35 875.479 1683.46 868.476C1674.71 861.339 1668.11 852.047 1663.67 840.6C1659.22 829.019 1657 816.63 1657 803.432C1657 789.831 1659.29 777.307 1663.87 765.86C1668.45 754.279 1674.98 745.054 1683.46 738.186C1692.08 731.318 1702.11 727.884 1713.56 727.884C1718.54 727.884 1723.12 728.76 1727.3 730.51C1731.6 732.126 1736.12 734.55 1740.83 737.782C1743.93 739.802 1746.22 740.812 1747.7 740.812C1748.77 740.812 1749.65 740.543 1750.32 740.004C1751 739.331 1751.6 738.321 1752.14 736.974L1755.78 729.5H1762.44V791.514H1755.98C1752.88 774.142 1747.5 760.272 1739.82 749.902C1732.28 739.533 1723.52 734.348 1713.56 734.348C1707.23 734.348 1701.91 737.446 1697.6 743.64C1693.43 749.835 1691.34 759.666 1691.34 773.132V833.732C1691.34 847.064 1693.7 856.895 1698.41 863.224C1703.26 869.419 1708.98 872.516 1715.58 872.516C1731.6 872.516 1743.52 865.177 1751.33 850.498C1755.24 843.361 1757.86 833.126 1759.21 819.794H1766.48C1766.08 825.72 1765.14 831.712 1763.66 837.772C1762.31 843.698 1760.49 848.882 1758.2 853.326C1754.03 861.406 1748.3 867.736 1741.03 872.314C1733.89 876.758 1725.41 878.98 1715.58 878.98ZM1899.43 878.98C1886.91 878.98 1876.2 875.479 1867.31 868.476C1858.56 861.339 1851.96 852.047 1847.52 840.6C1843.07 829.019 1840.85 816.63 1840.85 803.432C1840.85 789.831 1843.14 777.307 1847.72 765.86C1852.3 754.279 1858.83 745.054 1867.31 738.186C1875.93 731.318 1885.96 727.884 1897.41 727.884C1902.39 727.884 1906.97 728.76 1911.15 730.51C1915.46 732.126 1919.97 734.55 1924.68 737.782C1927.78 739.802 1930.07 740.812 1931.55 740.812C1932.63 740.812 1933.5 740.543 1934.17 740.004C1934.85 739.331 1935.45 738.321 1935.99 736.974L1939.63 729.5H1946.29V791.514H1939.83C1936.73 774.142 1931.35 760.272 1923.67 749.902C1916.13 739.533 1907.38 734.348 1897.41 734.348C1891.08 734.348 1885.76 737.446 1881.45 743.64C1877.28 749.835 1875.19 759.666 1875.19 773.132V833.732C1875.19 847.064 1877.55 856.895 1882.26 863.224C1887.11 869.419 1892.83 872.516 1899.43 872.516C1915.46 872.516 1927.37 865.177 1935.18 850.498C1939.09 843.361 1941.72 833.126 1943.06 819.794H1950.33C1949.93 825.72 1948.99 831.712 1947.51 837.772C1946.16 843.698 1944.34 848.882 1942.05 853.326C1937.88 861.406 1932.15 867.736 1924.88 872.314C1917.75 876.758 1909.26 878.98 1899.43 878.98ZM2023.09 868.88H2037.23C2039.11 868.88 2040.39 868.544 2041.06 867.87C2041.74 867.062 2042.07 865.783 2042.07 864.032V742.832C2042.07 740.947 2041.74 739.668 2041.06 738.994C2040.39 738.321 2039.11 737.984 2037.23 737.984H2023.09V731.52H2090.96V737.984H2076.82C2075.07 737.984 2073.79 738.321 2072.98 738.994C2072.31 739.668 2071.97 740.947 2071.97 742.832V864.032C2071.97 865.783 2072.31 867.062 2072.98 867.87C2073.79 868.544 2075.07 868.88 2076.82 868.88H2090.96V875.344H2023.09V868.88ZM2194.07 770.91H2193.26V847.872C2193.26 854.067 2195.61 859.117 2200.33 863.022C2205.18 866.928 2211.3 868.88 2218.71 868.88V875.344H2159.73V868.88C2167.13 868.88 2173.19 866.928 2177.91 863.022C2182.75 859.117 2185.18 854.067 2185.18 847.872V761.618C2185.18 760.137 2185.04 759.06 2184.77 758.386C2184.5 757.713 2183.9 756.703 2182.96 755.356L2174.88 743.236C2173.53 741.216 2172.05 739.87 2170.43 739.196C2168.82 738.388 2166.46 737.984 2163.36 737.984H2159.73V731.52H2204.57L2269.21 823.834V758.992C2269.21 752.798 2266.79 747.748 2261.94 743.842C2257.22 739.937 2251.16 737.984 2243.76 737.984V731.52H2302.74V737.984C2295.33 737.984 2289.21 739.937 2284.36 743.842C2279.65 747.748 2277.29 752.798 2277.29 758.992V878.98H2269.61L2194.07 770.91ZM2367.31 868.88H2381.45C2383.34 868.88 2384.62 868.544 2385.29 867.87C2385.97 867.062 2386.3 865.783 2386.3 864.032V742.832C2386.3 740.947 2385.97 739.668 2385.29 738.994C2384.62 738.321 2383.34 737.984 2381.45 737.984H2367.31V731.52H2480.84L2482.05 778.384H2475.59C2475.59 777.442 2474.85 774.412 2473.36 769.294C2472.02 764.177 2470.07 759.531 2467.51 755.356C2464.41 749.97 2460.84 745.728 2456.8 742.63C2452.76 739.533 2448.25 737.984 2443.27 737.984H2421.05C2419.3 737.984 2418.02 738.321 2417.21 738.994C2416.54 739.668 2416.2 740.947 2416.2 742.832V798.584H2426.5C2430.14 798.584 2433.5 797.103 2436.6 794.14C2439.7 791.178 2442.12 787.542 2443.87 783.232C2445.76 778.788 2446.7 774.614 2446.7 770.708H2453.16V833.934H2446.7C2446.7 829.894 2445.76 825.72 2443.87 821.41C2442.12 816.966 2439.7 813.263 2436.6 810.3C2433.5 807.338 2430.14 805.856 2426.5 805.856H2416.2V864.032C2416.2 865.783 2416.54 867.062 2417.21 867.87C2418.02 868.544 2419.3 868.88 2421.05 868.88H2443.06C2450.47 868.88 2456.67 865.918 2461.65 859.992C2466.63 854.067 2470.4 847.468 2472.96 840.196C2474.04 837.099 2474.98 833.261 2475.79 828.682C2476.6 824.104 2477.07 821.074 2477.2 819.592H2483.67L2482.45 875.344H2367.31V868.88Z" fill="white"/>
</svg>
