<svg width="80" height="80" viewBox="0 0 80 80" fill="none" xmlns="http://www.w3.org/2000/svg">
<path d="M56.015 27.585C58.0033 27.585 59.615 25.9732 59.615 23.985C59.615 21.9968 58.0033 20.385 56.015 20.385C54.0268 20.385 52.415 21.9968 52.415 23.985C52.415 25.9732 54.0268 27.585 56.015 27.585Z" fill="#444444"/>
<path d="M40 24.595C36.9532 24.595 33.9748 25.4985 31.4414 27.1912C28.9081 28.8839 26.9336 31.2898 25.7676 34.1047C24.6016 36.9196 24.2966 40.0171 24.891 43.0053C25.4854 45.9936 26.9526 48.7385 29.107 50.8929C31.2614 53.0474 34.0063 54.5146 36.9946 55.109C39.9829 55.7034 43.0803 55.3983 45.8952 54.2323C48.7101 53.0664 51.116 51.0919 52.8088 48.5585C54.5015 46.0252 55.405 43.0468 55.405 40C55.405 35.9143 53.782 31.996 50.893 29.107C48.004 26.218 44.0856 24.595 40 24.595ZM40 50C38.0222 50 36.0888 49.4135 34.4443 48.3147C32.7998 47.2159 31.5181 45.6541 30.7612 43.8268C30.0043 41.9995 29.8063 39.9889 30.1921 38.0491C30.578 36.1093 31.5304 34.3274 32.9289 32.9289C34.3274 31.5304 36.1093 30.578 38.0491 30.1921C39.9889 29.8063 41.9995 30.0043 43.8268 30.7612C45.6541 31.5181 47.2159 32.7998 48.3147 34.4443C49.4135 36.0888 50 38.0222 50 40C50 42.6521 48.9464 45.1957 47.071 47.071C45.1957 48.9464 42.6521 50 40 50Z" fill="#444444"/>
<path d="M40 15.405C48.01 15.405 48.96 15.435 52.1225 15.58C54.0246 15.6026 55.9087 15.9518 57.6925 16.6125C58.9867 17.1117 60.162 17.8764 61.1428 18.8572C62.1236 19.838 62.8883 21.0133 63.3875 22.3075C64.0482 24.0913 64.3974 25.9754 64.42 27.8775C64.565 31.04 64.595 31.99 64.595 40.0025C64.595 48.015 64.565 48.96 64.42 52.1225C64.3974 54.0246 64.0482 55.9087 63.3875 57.6925C62.8883 58.9867 62.1236 60.162 61.1428 61.1428C60.162 62.1236 58.9867 62.8883 57.6925 63.3875C55.9087 64.0482 54.0246 64.3974 52.1225 64.42C48.96 64.565 48.01 64.595 40 64.595C31.99 64.595 31.04 64.565 27.8775 64.42C25.9754 64.3974 24.0913 64.0482 22.3075 63.3875C21.0133 62.8883 19.838 62.1236 18.8572 61.1428C17.8764 60.162 17.1117 58.9867 16.6125 57.6925C15.9518 55.9087 15.6026 54.0246 15.58 52.1225C15.435 48.96 15.405 48.01 15.405 40C15.405 31.99 15.435 31.04 15.58 27.8775C15.6026 25.9754 15.9518 24.0913 16.6125 22.3075C17.1117 21.0133 17.8764 19.838 18.8572 18.8572C19.838 17.8764 21.0133 17.1117 22.3075 16.6125C24.0913 15.9518 25.9754 15.6026 27.8775 15.58C31.04 15.435 31.99 15.405 40 15.405V15.405ZM40 10C31.8525 10 30.83 10.035 27.63 10.18C25.1419 10.2302 22.6804 10.7019 20.35 11.575C18.3568 12.3457 16.5466 13.5244 15.0355 15.0355C13.5244 16.5466 12.3457 18.3568 11.575 20.35C10.7016 22.6812 10.23 25.1436 10.18 27.6325C10.035 30.8325 10 31.85 10 40C10 48.15 10.035 49.17 10.18 52.37C10.2302 54.8581 10.7019 57.3196 11.575 59.65C12.3457 61.6432 13.5244 63.4534 15.0355 64.9645C16.5466 66.4756 18.3568 67.6543 20.35 68.425C22.6812 69.2984 25.1436 69.77 27.6325 69.82C30.8325 69.965 31.8525 70 40 70C48.1475 70 49.17 69.965 52.37 69.82C54.8589 69.77 57.3213 69.2984 59.6525 68.425C61.6457 67.6543 63.4559 66.4756 64.967 64.9645C66.4781 63.4534 67.6568 61.6432 68.4275 59.65C69.3 57.3187 69.7708 54.8563 69.82 52.3675C69.965 49.1675 70 48.15 70 40C70 31.85 69.965 30.83 69.82 27.63C69.7698 25.1419 69.2981 22.6804 68.425 20.35C67.6543 18.3568 66.4756 16.5466 64.9645 15.0355C63.4534 13.5244 61.6432 12.3457 59.65 11.575C57.3187 10.7025 54.8563 10.2317 52.3675 10.1825C49.1675 10.0325 48.15 10 40 10Z" fill="#444444"/>
</svg>
