<svg width="143" height="100" viewBox="0 0 143 100" fill="none" xmlns="http://www.w3.org/2000/svg">
<g clip-path="url(#clip0)">
<path d="M138.1 -5.13623H-0.350309C-9.43774 -5.13623 -16.8046 4.13595 -16.8046 15.5738V93.9756C-16.8046 105.413 -9.43774 114.686 -0.350309 114.686H138.1C147.187 114.686 154.554 105.413 154.554 93.9756V15.5738C154.554 4.13595 147.187 -5.13623 138.1 -5.13623Z" fill="#FFB3C7"/>
<path d="M138.538 65.0602C138.002 65.0627 137.472 65.1982 136.978 65.4588C136.484 65.7195 136.036 66.1002 135.659 66.5792C135.282 67.0582 134.983 67.6261 134.781 68.2504C134.578 68.8746 134.476 69.543 134.479 70.2173C134.476 70.8916 134.578 71.56 134.781 72.1843C134.983 72.8085 135.282 73.3764 135.659 73.8555C136.036 74.3345 136.484 74.7152 136.978 74.9758C137.472 75.2365 138.002 75.3719 138.538 75.3745C140.777 75.3745 142.597 73.0643 142.597 70.2173C142.6 69.543 142.498 68.8746 142.295 68.2504C142.093 67.6261 141.794 67.0582 141.417 66.5792C141.04 66.1002 140.592 65.7195 140.098 65.4588C139.604 65.1982 139.074 65.0627 138.538 65.0602V65.0602ZM125.18 61.0773C125.18 57.1759 122.556 54.0174 119.319 54.0174C116.082 54.0174 113.459 57.1807 113.459 61.0773C113.459 64.9739 116.086 68.1324 119.323 68.1324C122.56 68.1324 125.18 64.9739 125.18 61.0773V61.0773ZM125.202 47.3553H131.668V74.7945H125.202V73.0403C123.317 74.6782 121.08 75.5542 118.79 75.5518C112.495 75.5518 107.393 69.0718 107.393 61.0773C107.393 53.0828 112.495 46.6028 118.79 46.6028C121.17 46.6028 123.375 47.5279 125.202 49.1143V47.3553ZM73.4444 50.9308V47.3601H66.8223V74.7945H73.4596V61.9832C73.4596 57.66 77.1458 55.3402 79.7047 55.3402H79.7809V47.3601C77.1534 47.3601 74.7429 48.7884 73.4444 50.9308V50.9308ZM56.9483 61.0773C56.9483 57.1759 54.3246 54.0174 51.0878 54.0174C47.851 54.0174 45.2273 57.1807 45.2273 61.0773C45.2273 64.9739 47.8548 68.1324 51.0916 68.1324C54.3284 68.1324 56.9483 64.9739 56.9483 61.0773V61.0773ZM56.9711 47.3553H63.4409V74.7945H56.9711V73.0403C55.1433 74.622 52.9385 75.5518 50.5585 75.5518C44.2639 75.5518 39.1612 69.0718 39.1612 61.0773C39.1612 53.0828 44.2639 46.6028 50.5585 46.6028C52.9385 46.6028 55.1433 47.5279 56.9711 49.1143V47.3553ZM95.9 46.622C93.3182 46.622 90.8735 47.6381 89.2361 50.4467V47.3601H82.7968V74.7945H89.316V60.3776C89.316 56.2078 91.5171 54.1612 94.1712 54.1612C97.012 54.1612 98.6494 56.318 98.6494 60.32V74.7945H105.108V57.3485C105.108 50.9643 101.109 46.622 95.9 46.622V46.622ZM29.7403 74.7945H36.5109V35.1335H29.7403V74.7945ZM0 74.8041H7.17042V35.1239H0.0038077L0 74.8041ZM25.0793 35.1239C25.0793 43.7127 22.4442 51.7072 17.7452 57.6456L27.6535 74.8041H18.8L8.03483 56.1598L10.8146 53.5142C13.0776 51.372 14.9112 48.5933 16.1688 45.4001C17.4263 42.2069 18.0731 38.6878 18.0574 35.1239H25.0717H25.0793Z" fill="#0A0B09"/>
</g>
<defs>
<clipPath id="clip0">
<rect width="143" height="100" fill="white"/>
</clipPath>
</defs>
</svg>
