<svg width="103" height="80" viewBox="0 0 103 80" fill="none" xmlns="http://www.w3.org/2000/svg">
<g clip-path="url(#clip0)">
<path d="M18.7123 79.6024V74.3075C18.7123 72.2774 17.4765 70.9539 15.3583 70.9539C14.2994 70.9539 13.1521 71.3069 12.3577 72.4542C11.7402 71.4834 10.8578 70.9539 9.53402 70.9539C8.6512 70.9539 7.76919 71.2185 7.06286 72.1893V71.1304H5.20959V79.6024H7.06286V74.925C7.06286 73.4251 7.85723 72.7188 9.09301 72.7188C10.328 72.7188 10.9463 73.5131 10.9463 74.925V79.6024H12.7995V74.925C12.7995 73.4251 13.6816 72.7188 14.8289 72.7188C16.0647 72.7188 16.6822 73.5131 16.6822 74.925V79.6024H18.7123V79.6024ZM46.1579 71.1304H43.1577V68.5712H41.3045V71.1304H39.6277V72.8068H41.3041V76.6902C41.3041 78.6319 42.0984 79.7789 44.2166 79.7789C45.011 79.7789 45.893 79.5143 46.5113 79.1614L45.9815 77.5726C45.452 77.9256 44.8345 78.014 44.3931 78.014C43.5107 78.014 43.1577 77.4846 43.1577 76.6018V72.8068H46.1579V71.1304V71.1304ZM61.8669 70.9535C60.808 70.9535 60.1021 71.4834 59.6607 72.1893V71.1304H57.8074V79.6024H59.6607V74.837C59.6607 73.4251 60.2781 72.6307 61.4255 72.6307C61.7784 72.6307 62.2199 72.7192 62.5728 72.8072L63.1023 71.0424C62.7493 70.9539 62.2198 70.9539 61.8669 70.9539V70.9535ZM38.1274 71.8363C37.2446 71.2185 36.0092 70.9539 34.6854 70.9539C32.5676 70.9539 31.1557 72.0128 31.1557 73.6896C31.1557 75.1019 32.2146 75.8958 34.0679 76.1608L34.9503 76.2492C35.9212 76.4253 36.4506 76.6902 36.4506 77.1316C36.4506 77.7491 35.7447 78.1905 34.5089 78.1905C33.2735 78.1905 32.3027 77.7491 31.6848 77.3081L30.8024 78.72C31.7732 79.4259 33.097 79.7789 34.4205 79.7789C36.8916 79.7789 38.3039 78.6319 38.3039 77.0432C38.3039 75.5429 37.1565 74.7485 35.3913 74.484L34.5089 74.3956C33.7145 74.3071 33.097 74.131 33.097 73.6016C33.097 72.9837 33.7145 72.6307 34.6854 72.6307C35.7447 72.6307 36.8036 73.0717 37.333 73.3367L38.1274 71.8363V71.8363ZM87.3716 70.9539C86.3123 70.9539 85.6064 71.4834 85.165 72.1893V71.1304H83.3117V79.6024H85.165V74.837C85.165 73.4251 85.7829 72.6307 86.9298 72.6307C87.2832 72.6307 87.7246 72.7192 88.0775 72.8072L88.607 71.0424C88.254 70.9539 87.7246 70.9539 87.3716 70.9539V70.9539ZM63.7201 75.3664C63.7201 77.9256 65.485 79.7789 68.2211 79.7789C69.4564 79.7789 70.3388 79.5143 71.2213 78.8084L70.3388 77.3081C69.6329 77.8376 68.927 78.1021 68.1326 78.1021C66.6323 78.1021 65.5734 77.0432 65.5734 75.3664C65.5734 73.7781 66.6323 72.7188 68.1326 72.6307C68.927 72.6307 69.6329 72.8952 70.3388 73.4251L71.2213 71.9248C70.3388 71.2185 69.4564 70.9539 68.2211 70.9539C65.485 70.9539 63.7201 72.8072 63.7201 75.3664ZM80.841 75.3664V71.1304H78.9877V72.1893C78.3698 71.3953 77.4874 70.9539 76.3401 70.9539C73.9573 70.9539 72.1041 72.8072 72.1041 75.3664C72.1041 77.9256 73.9573 79.7789 76.3401 79.7789C77.5754 79.7789 78.4582 79.3379 78.9877 78.5435V79.6024H80.841V75.3664V75.3664ZM74.0454 75.3664C74.0454 73.8661 75.0162 72.6307 76.6046 72.6307C78.1049 72.6307 79.1642 73.7781 79.1642 75.3664C79.1642 76.8667 78.1049 78.1021 76.6046 78.1021C75.0162 78.0136 74.0454 76.8667 74.0454 75.3664V75.3664ZM51.8946 70.9539C49.4235 70.9539 47.6582 72.7188 47.6582 75.3664C47.6582 78.014 49.4231 79.7789 51.9827 79.7789C53.218 79.7789 54.4538 79.4259 55.4247 78.6319L54.5419 77.3081C53.8359 77.8376 52.9535 78.1905 52.0711 78.1905C50.9238 78.1905 49.7764 77.6611 49.5115 76.1604H55.7776V75.4548C55.8661 72.7188 54.2773 70.9539 51.8942 70.9539H51.8946ZM51.8946 72.5423C53.0416 72.5423 53.8363 73.2486 54.0124 74.5724H49.5999C49.7764 73.4251 50.5708 72.5423 51.8946 72.5423ZM97.8733 75.3664V67.7769H96.0201V72.1893C95.4022 71.3953 94.5197 70.9539 93.3724 70.9539C90.9897 70.9539 89.1364 72.8072 89.1364 75.3664C89.1364 77.9256 90.9897 79.7789 93.3724 79.7789C94.6082 79.7789 95.4906 79.3379 96.0201 78.5435V79.6024H97.8733V75.3664V75.3664ZM91.0781 75.3664C91.0781 73.8661 92.0486 72.6307 93.6373 72.6307C95.1376 72.6307 96.1965 73.7781 96.1965 75.3664C96.1965 76.8667 95.1376 78.1021 93.6373 78.1021C92.0486 78.0136 91.0781 76.8667 91.0781 75.3664V75.3664ZM29.1256 75.3664V71.1304H27.2723V72.1893C26.6544 71.3953 25.772 70.9539 24.6247 70.9539C22.242 70.9539 20.3887 72.8072 20.3887 75.3664C20.3887 77.9256 22.242 79.7789 24.6247 79.7789C25.8604 79.7789 26.7429 79.3379 27.2723 78.5435V79.6024H29.1256V75.3664V75.3664ZM22.242 75.3664C22.242 73.8661 23.2128 72.6307 24.8012 72.6307C26.3015 72.6307 27.3608 73.7781 27.3608 75.3664C27.3608 76.8667 26.3015 78.1021 24.8012 78.1021C23.2128 78.0136 22.242 76.8667 22.242 75.3664V75.3664Z" fill="black"/>
<path d="M37.5094 6.79517H65.3084V56.7453H37.5094V6.79517Z" fill="#FF5F00"/>
<path d="M39.2746 31.7705C39.2746 21.6217 44.0401 12.6199 51.3647 6.79518C45.9818 2.5592 39.1866 0 31.7735 0C14.2109 0 0.00268555 14.2082 0.00268555 31.7705C0.00268555 49.3323 14.2109 63.5409 31.7731 63.5409C39.1862 63.5409 45.9814 60.9817 51.3647 56.7453C44.0401 51.009 39.2746 41.9192 39.2746 31.7705V31.7705Z" fill="#EB001B"/>
<path d="M102.815 31.7705C102.815 49.3323 88.6069 63.5409 71.0447 63.5409C63.6316 63.5409 56.8364 60.9817 51.4531 56.7453C58.8662 50.921 63.5436 41.9192 63.5436 31.7705C63.5436 21.6217 58.7777 12.6199 51.4531 6.79518C56.836 2.5592 63.6316 0 71.0447 0C88.6069 0 102.816 14.2967 102.816 31.7705H102.815Z" fill="#F79E1B"/>
</g>
<defs>
<clipPath id="clip0">
<rect width="102.92" height="80" fill="white"/>
</clipPath>
</defs>
</svg>
