<svg width="14" height="12" viewBox="0 0 14 12" fill="none" xmlns="http://www.w3.org/2000/svg">
<path d="M12.8889 11.1352H0.444445C0.32657 11.1352 0.213524 11.1046 0.130175 11.0503C0.0468252 10.996 0 10.9223 0 10.8454C0 10.7686 0.0468252 10.6949 0.130175 10.6405C0.213524 10.5862 0.32657 10.5557 0.444445 10.5557H12.8889C13.0068 10.5557 13.1198 10.5862 13.2032 10.6405C13.2865 10.6949 13.3333 10.7686 13.3333 10.8454C13.3333 10.9223 13.2865 10.996 13.2032 11.0503C13.1198 11.1046 13.0068 11.1352 12.8889 11.1352Z" fill="#444444"/>
<path d="M12.8889 5.85734H0.444445C0.32657 5.85734 0.213524 5.82681 0.130175 5.77247C0.0468252 5.71813 0 5.64443 0 5.56758C0 5.49074 0.0468252 5.41704 0.130175 5.3627C0.213524 5.30836 0.32657 5.27783 0.444445 5.27783H12.8889C13.0068 5.27783 13.1198 5.30836 13.2032 5.3627C13.2865 5.41704 13.3333 5.49074 13.3333 5.56758C13.3333 5.64443 13.2865 5.71813 13.2032 5.77247C13.1198 5.82681 13.0068 5.85734 12.8889 5.85734Z" fill="#444444"/>
<path d="M12.8889 0.579499H0.444445C0.32657 0.579499 0.213524 0.548972 0.130175 0.494633C0.0468252 0.440295 0 0.366596 0 0.28975C0 0.212903 0.0468252 0.139204 0.130175 0.0848657C0.213524 0.0305271 0.32657 0 0.444445 0H12.8889C13.0068 0 13.1198 0.0305271 13.2032 0.0848657C13.2865 0.139204 13.3333 0.212903 13.3333 0.28975C13.3333 0.366596 13.2865 0.440295 13.2032 0.494633C13.1198 0.548972 13.0068 0.579499 12.8889 0.579499Z" fill="#444444"/>
<path d="M12.8889 0.579499H0.444445C0.32657 0.579499 0.213524 0.548972 0.130175 0.494633C0.0468252 0.440295 0 0.366596 0 0.28975C0 0.212903 0.0468252 0.139204 0.130175 0.0848657C0.213524 0.0305271 0.32657 0 0.444445 0H12.8889C13.0068 0 13.1198 0.0305271 13.2032 0.0848657C13.2865 0.139204 13.3333 0.212903 13.3333 0.28975C13.3333 0.366596 13.2865 0.440295 13.2032 0.494633C13.1198 0.548972 13.0068 0.579499 12.8889 0.579499Z" stroke="black"/>
</svg>
