<svg width="90" height="52" viewBox="0 0 90 52" fill="none" xmlns="http://www.w3.org/2000/svg">
<path d="M81.358 0H8.642C3.86916 0 0 4.02392 0 8.98768V43.0123C0 47.9761 3.86916 52 8.642 52H81.358C86.1308 52 90 47.9761 90 43.0123V8.98768C90 4.02392 86.1308 0 81.358 0Z" fill="#FFB3C7"/>
<path d="M81.5878 30.464C81.3064 30.4651 81.0281 30.5239 80.7686 30.637C80.5091 30.7501 80.2736 30.9153 80.0755 31.1232C79.8775 31.3311 79.7208 31.5775 79.6145 31.8484C79.5082 32.1194 79.4542 32.4094 79.4558 32.7021C79.4542 32.9947 79.5082 33.2848 79.6145 33.5557C79.7208 33.8266 79.8775 34.073 80.0755 34.2809C80.2736 34.4888 80.5091 34.654 80.7686 34.7672C81.0281 34.8803 81.3064 34.9391 81.5878 34.9401C82.7638 34.9401 83.7198 33.9376 83.7198 32.7021C83.7214 32.4094 83.6675 32.1194 83.5611 31.8484C83.4548 31.5775 83.2981 31.3311 83.1001 31.1232C82.9021 30.9153 82.6666 30.7501 82.4071 30.637C82.1476 30.5239 81.8692 30.4651 81.5878 30.464V30.464ZM74.5718 28.7355C74.5718 27.0424 73.1938 25.6717 71.4938 25.6717C69.7938 25.6717 68.4158 27.0445 68.4158 28.7355C68.4158 30.4265 69.7958 31.7973 71.4958 31.7973C73.1958 31.7973 74.5718 30.4265 74.5718 28.7355V28.7355ZM74.5838 22.7805H77.9798V34.6885H74.5838V33.9272C73.5937 34.638 72.4189 35.0181 71.2158 35.0171C67.9098 35.0171 65.2298 32.2049 65.2298 28.7355C65.2298 25.2661 67.9098 22.4539 71.2158 22.4539C72.4658 22.4539 73.6238 22.8553 74.5838 23.5438V22.7805ZM47.3998 24.3321V22.7825H43.9218V34.6885H47.4078V29.1286C47.4078 27.2525 49.3438 26.2457 50.6878 26.2457H50.7278V22.7825C49.3478 22.7825 48.0818 23.4024 47.3998 24.3321V24.3321ZM38.7358 28.7355C38.7358 27.0424 37.3578 25.6717 35.6578 25.6717C33.9578 25.6717 32.5798 27.0445 32.5798 28.7355C32.5798 30.4265 33.9598 31.7973 35.6598 31.7973C37.3598 31.7973 38.7358 30.4265 38.7358 28.7355V28.7355ZM38.7478 22.7805H42.1458V34.6885H38.7478V33.9272C37.7878 34.6136 36.6298 35.0171 35.3798 35.0171C32.0738 35.0171 29.3938 32.2049 29.3938 28.7355C29.3938 25.2661 32.0738 22.4539 35.3798 22.4539C36.6298 22.4539 37.7878 22.8553 38.7478 23.5438V22.7805ZM59.1938 22.4622C57.8378 22.4622 56.5538 22.9032 55.6938 24.1221V22.7825H52.3118V34.6885H55.7358V28.4318C55.7358 26.6222 56.8918 25.7341 58.2858 25.7341C59.7778 25.7341 60.6378 26.6701 60.6378 28.4069V34.6885H64.0298V27.1173C64.0298 24.3467 61.9298 22.4622 59.1938 22.4622V22.4622ZM24.4458 34.6885H28.0018V17.4765H24.4458V34.6885ZM8.82581 34.6926H12.5918V17.4723H8.82781L8.82581 34.6926ZM21.9978 17.4723C21.9978 21.1997 20.6138 24.6691 18.1458 27.2462L23.3498 34.6926H18.6998L13.0458 26.6014L14.5058 25.4533C15.6944 24.5236 16.6574 23.3177 17.3179 21.9319C17.9784 20.5462 18.3181 19.0189 18.3098 17.4723H21.9938H21.9978Z" fill="#0A0B09"/>
</svg>
