<!-- Generated by IcoMoon.io -->
<svg version="1.1" xmlns="http://www.w3.org/2000/svg" width="16" height="16" viewBox="0 0 16 16">
<title>cart</title>
<path d="M15.957 2.7l-1.457 5.8c0 0.069-0.014 0.135-0.039 0.194-0.051 0.12-0.146 0.216-0.266 0.267-0.060 0.025-0.126 0.039-0.195 0.039h-9.5l0.4 2h8.6c0.277 0 0.5 0.223 0.5 0.5s-0.223 0.5-0.5 0.5h-9c-0.277 0-0.5-0.223-0.5-0.5l-1.9-9.5h-1.6c-0.276 0-0.5-0.224-0.5-0.5s0.224-0.5 0.5-0.5h2c0.276 0 0.5 0.224 0.5 0.5l0.1 0.5h12.4c0.277 0 0.5 0.224 0.5 0.5 0 0.071-0.016 0.139-0.043 0.2zM4.3 8h1.7v-5h-2.7l1 5zM9 3h-2.5v5h2.5v-5zM12 3h-2.5v5h2.5v-5zM12.5 3v5h1.127l1.267-5h-2.393zM5.5 13c0.829 0 1.5 0.672 1.5 1.5s-0.671 1.5-1.5 1.5-1.5-0.672-1.5-1.5 0.671-1.5 1.5-1.5zM5.5 15c0.277 0 0.5-0.223 0.5-0.5s-0.223-0.5-0.5-0.5-0.5 0.223-0.5 0.5 0.223 0.5 0.5 0.5zM12.5 13c0.829 0 1.5 0.672 1.5 1.5s-0.671 1.5-1.5 1.5-1.5-0.672-1.5-1.5 0.671-1.5 1.5-1.5zM12.5 15c0.277 0 0.5-0.223 0.5-0.5s-0.223-0.5-0.5-0.5-0.5 0.223-0.5 0.5 0.223 0.5 0.5 0.5z"></path>
</svg>
