<!-- Generated by IcoMoon.io -->
<svg version="1.1" xmlns="http://www.w3.org/2000/svg" width="10" height="16" viewBox="0 0 10 16">
<title>map-pin-stroke</title>
<path d="M5 2c0.801 0 1.554 0.313 2.121 0.88 0.566 0.566 0.879 1.319 0.879 2.12s-0.313 1.554-0.865 2.107c-0.084 0.083-1.119 1.113-2.135 2.72-1.011-1.605-2.043-2.631-2.121-2.707-0.567-0.566-0.879-1.319-0.879-2.12s0.313-1.554 0.879-2.121 1.32-0.879 2.121-0.879zM5 0c-1.28 0-2.558 0.488-3.535 1.465-1.953 1.952-1.953 5.118 0 7.071 0-0.001 3.535 3.464 3.535 7.464 0-4 3.535-7.465 3.535-7.465 1.953-1.952 1.953-5.118 0-7.071-0.976-0.976-2.255-1.464-3.535-1.464v0zM4 5c0-0.552 0.448-1 1-1s1 0.448 1 1c0 0.552-0.448 1-1 1s-1-0.448-1-1z"></path>
</svg>
